<?xml version="1.0" encoding="utf-8"?>
<!-- Generator: Adobe Illustrator 21.0.0, SVG Export Plug-In . SVG Version: 6.00 Build 0)  -->
<svg version="1.1" id="Calque_1" xmlns="http://www.w3.org/2000/svg" xmlns:xlink="http://www.w3.org/1999/xlink" x="0px" y="0px"
	 viewBox="0 0 150 53.1" enable-background="new 0 0 150 53.1" xml:space="preserve">
<path fill="#E3051D" d="M141.6,35.7c0-1.1,0.9-2,2-2c1.1,0,2,0.9,2,2v0v14.6l0,0.6c-0.6,2-2.7,1.8-2.7,1.8c-1.3,0-1.9-0.9-1.9-0.9
	l-5.4-9.7c-0.1-0.1-0.2,0-0.2,0.1v8.7c0,1.1-0.9,2-2,2c-1.1,0-2-0.9-2-2V36.6c0-0.4,0.2-0.8,0.2-0.8c0.2-0.3,0.5-1.1,1.6-1.5
	c1.1-0.5,2.7,0.1,3.2,1c1.9,3.1,3.4,6.2,5.2,9.2c0.2,0,0.2-0.3,0.2-0.3L141.6,35.7L141.6,35.7z"/>
<path fill="#E3051D" d="M150,35.4c0,0.8-0.7,1.5-1.5,1.5c-0.8,0-1.5-0.7-1.5-1.5c0-0.8,0.6-1.5,1.5-1.5
	C149.3,33.9,150,34.6,150,35.4 M147.3,35.4c0,0.7,0.6,1.3,1.3,1.3c0.7,0,1.3-0.6,1.3-1.3c0-0.7-0.5-1.3-1.3-1.3
	C147.8,34.1,147.3,34.7,147.3,35.4 M148.6,34.6c0.1,0,0.6,0,0.6,0.5c0,0.2-0.1,0.4-0.3,0.4v0c0.2,0.1,0.3,0.2,0.3,0.4
	c0,0.3,0,0.3,0.1,0.4H149c0-0.1,0-0.1-0.1-0.3c0-0.3,0-0.4-0.4-0.4h-0.4v0.7h-0.2v-1.7L148.6,34.6L148.6,34.6z M148.1,35.3h0.4
	c0.1,0,0.5,0,0.5-0.3c0-0.3-0.3-0.3-0.4-0.3h-0.5V35.3z"/>
<path fill="#E3051D" d="M32.3,34.5c1,0.4,1.4,1.2,2.1,1.8c1.1,1.2,2.1,2.3,3.3,3.4c0.1,0.1,0.3,0.1,0.4,0c1.5-1.8,2.8-3.7,4.6-5.1
	c1-0.8,2.7-0.2,3,1.1c0.2,0.7-0.1,1.3-0.4,1.7c-1.8,2.4-3.5,4.3-5.3,6.5c-0.1,2.4,0,4.5,0,7.1c0,1-1.2,1.8-2,1.8
	c-0.6,0-1.3-0.3-1.6-0.9c-0.2-0.3-0.3-0.7-0.3-1c-0.1-2.3-0.2-4.6-0.2-6.9c-2.6-3.3-6-6.2-6.1-7.4C29.5,35.3,30.5,33.8,32.3,34.5"/>
<path fill="#E3051D" d="M62.7,48.7V36.3c0-3.2-4.4-2.7-4.2-0.1v15.4c0,0,0,1.3,1.5,1.2h6.9c0,0,2,0,2.1-1.9c0,0,0-1.7-1.6-2.1
	l-4.5,0c0,0-0.3-0.1-0.2-0.4"/>
<path fill="#E3051D" d="M55.9,50.8c-0.2,1.7-1.4,2.1-2.2,2c-0.5-0.1-1.6-0.3-1.8-1.5c-0.2-0.8-0.2-2-0.2-2.1c0,0-5.1,0-5.1,0
	c-0.9,1.2-1.8,2.6-2.6,3.4c-0.3,0.3-0.7,0.4-1.1,0.3c-0.8,0-1.7-0.5-2-1.3c-0.2-0.5-0.4-1.1,0-1.6c2.4-3.4,4.6-6.3,7-9.7
	c1.4-1.8,2.6-3.5,4-5.3c0.7-0.9,1.3-0.9,2-1c0,0,1.8,0,1.9,1.6L55.9,50.8 M50.9,45.1c0,0,0.9,0,0.9,0c0-1,0-2.1,0-3.1
	c-0.7,1-1.3,1.8-2,2.8c-0.1,0.1-0.1,0.3,0.1,0.3C50.2,45.1,50.7,45.1,50.9,45.1"/>
<path fill="#E3051D" d="M31.4,43.6c0,5.2-4.2,9.3-9.3,9.3c-5.2,0-9.3-4.2-9.3-9.3c0-5.2,4.2-9.3,9.3-9.3
	C27.2,34.3,31.4,38.5,31.4,43.6 M22.1,38.6c-2.8,0-5,2.2-5,5c0,2.8,2.2,5,5,5c2.8,0,5-2.2,5-5C27.1,40.8,24.9,38.6,22.1,38.6"/>
<path fill="#E3051D" d="M74.6,42.4c0.4-3.3,2.6-6.1,5.6-7.3c3.5-1.5,7.8-0.7,10.3,2.4c0.5,0.7,0.4,1.5-0.1,2.2
	c-0.5,0.7-1.3,1-2.1,0.8c-1.3-0.5-2.1-1.6-3.5-1.9c-2.9-0.6-5.6,1.3-6,4.1c-0.4,2.8,1.2,5.4,4,6c2,0.4,3.5-0.7,5.2-1.8
	c0.8-0.5,2.1-0.3,2.5,0.7c0.3,0.6,0.5,1.2,0.2,1.8c-1.3,2.3-4,3.2-6.5,3.4c-1.9,0.2-3.7-0.5-5.3-1.5C75.7,49.5,74.2,46,74.6,42.4"/>
<path fill="#E3051D" d="M91.9,50.8V35.7c0.2-1.7,2-1.6,1.9-1.6c0.7,0,1.3,0,2,1c1.4,1.8,2.6,3.4,4,5.3c2.5,3.3,4.6,6.2,7,9.7
	c0.3,0.5,0.2,1.1,0,1.6c-0.3,0.8-1.2,1.2-2,1.3c-0.3,0-0.8-0.1-1.1-0.3c-0.8-0.8-1.7-2.2-2.6-3.4c0,0-5.1,0-5.1,0
	c0,0.2-0.1,1.4-0.2,2.1c-0.2,1.2-1.3,1.4-1.8,1.5c-0.1,0,0.1,0,0,0C93.3,52.8,92,52.5,91.9,50.8 M98,45.1c0.2,0,0.2-0.2,0.1-0.3
	c-0.7-0.9-1.3-1.8-2-2.8c0,0.9,0,2.1,0,3.1c0,0,0.9,0,0.9,0C97.1,45,97.6,45.1,98,45.1"/>
<path fill="#E3051D" d="M1.6,35.9c1.2-1,1.8-1.3,3.6-1.6c1.6-0.2,3,0.5,3.1,0.5c2.5,0.8,4.1,3.7,3.8,6.5C12,43,11,44.5,9.8,45.6
	c1.2,2.6,3.4,4.4,3.1,5.7c-0.2,0.9-0.5,1.1-1.3,1.5c-0.5,0.2-1.2,0.2-1.7-0.2c-2.1-1.8-3.2-4.3-4.9-6.1c-0.4-0.4-0.6-0.2-0.6,0
	c0,2.1,0,3.7-0.1,4.8c-0.1,0.6-0.7,1.3-1.1,1.5c-1.1,0.6-2.6-0.1-2.8-1.4c0-0.2-0.3-1.2-0.4-5.6c0-2.2,0-2.7,0-6.1
	C0,38.2,0.7,36.7,1.6,35.9 M6.1,42.5c1.2,0,2.2-0.9,2.2-2c0-1.1-1-2-2.2-2s-2.2,0.9-2.2,2C3.9,41.6,4.9,42.5,6.1,42.5"/>
<path fill="#E3051D" d="M141.6,35.7c0-1.1,0.9-2,2-2c1.1,0,2,0.9,2,2v0v14.6l0,0.6c-0.6,2-2.7,1.8-2.7,1.8c-1.3,0-1.9-0.9-1.9-0.9
	l-5.4-9.8c-0.1-0.1-0.2,0-0.2,0.1V51c0,1.1-0.9,2.1-2,2.1c-1.1,0-2.1-0.9-2.1-2.1V36.6c0-0.4,0.2-0.8,0.2-0.8
	c0.2-0.3,0.5-1.1,1.6-1.5c1.1-0.5,2.7,0.1,3.3,1c1.9,3.1,3.4,6.2,5.2,9.2c0.2,0,0.2-0.3,0.2-0.3L141.6,35.7L141.6,35.7z"/>
<path fill="#E3051D" d="M118.4,35.7c0-1.1,0.9-2,2-2c1.1,0,2,0.9,2,2v0v14.6l0,0.6c-0.6,2-2.7,1.8-2.7,1.8c-1.3,0-1.9-0.9-1.9-0.9
	l-5.5-9.8c-0.1-0.1-0.2,0-0.2,0.1V51c0,1.1-0.9,2.1-2,2.1c-1.1,0-2-0.9-2-2.1V36.6c0-0.4,0.2-0.8,0.2-0.8c0.2-0.3,0.5-1.1,1.6-1.5
	c1.1-0.5,2.7,0.1,3.3,1c1.9,3.1,3.4,6.2,5.2,9.2c0.2,0,0.2-0.3,0.2-0.3L118.4,35.7L118.4,35.7z"/>
<path fill="#E3051D" d="M128.9,50.9c0,1.2-1,2.2-2.2,2.2c-1.2,0-2.2-1-2.2-2.2v0v-15c0-1.2,1-2.2,2.2-2.2c1.2,0,2.2,1,2.2,2.2v0
	L128.9,50.9L128.9,50.9z"/>
<path fill="#E3051D" d="M56.3,27.2c-0.5,0-1-0.2-1.3-0.7c-0.5-0.7-0.4-1.7,0.3-2.3c4.3-3.2,11-5.2,17.7-5.2l0,0
	c6.7,0,13.4,1.9,17.7,5.2c0.7,0.5,0.9,1.6,0.3,2.3c-0.5,0.7-1.6,0.9-2.3,0.3c-2.9-2.2-8.6-4.5-15.7-4.5l0,0
	c-7.2,0-12.8,2.3-15.8,4.5C57,27.1,56.6,27.2,56.3,27.2z"/>
<path fill="#E3051D" d="M57.8,30c-0.3,0-0.6-0.1-0.9-0.4c-0.4-0.5-0.3-1.2,0.2-1.6c3.7-3.1,9.7-4.9,16-4.9c6.2,0,12.2,1.8,15.9,4.9
	c0.5,0.4,0.5,1.1,0.2,1.6c-0.4,0.5-1.1,0.5-1.6,0.2c-3.4-2.8-8.8-4.4-14.5-4.4c-5.7,0-11.2,1.7-14.5,4.4C58.3,29.9,58,30,57.8,30z"
	/>
<path fill="#E3051D" d="M49,6.5c-0.7,0-1.3,0.2-1.9,0.5c-0.9,0.5-1.5,1.3-1.7,2.3c-0.2,1-0.1,2,0.4,2.8c0.7,1.1,1.9,1.8,3.2,1.8h0
	c0.7,0,1.3-0.2,1.9-0.5c0.9-0.5,1.5-1.3,1.7-2.3c0.2-1,0.1-2-0.4-2.8C51.6,7.2,50.4,6.5,49,6.5z"/>
<path fill="#E3051D" d="M73,9.4c-2.1,0-3.7,1.7-3.7,3.7s1.7,3.7,3.7,3.7c2.1,0,3.7-1.7,3.7-3.7C76.7,11,75.1,9.4,73,9.4z"/>
<path fill="#E3051D" d="M73,0c-2.1,0-3.7,1.7-3.7,3.7s1.7,3.7,3.7,3.7c2.1,0,3.7-1.7,3.7-3.7C76.7,1.7,75.1,0,73,0z"/>
<path fill="#E3051D" d="M63.1,10.7c-0.3,0-0.7,0-1,0.1c-2,0.5-3.2,2.6-2.6,4.6c0.4,1.6,1.9,2.7,3.6,2.7h0.1c0.3,0,0.6-0.1,0.9-0.1
	c1-0.3,1.8-0.9,2.3-1.8c0.5-0.9,0.6-1.9,0.4-2.8C66.2,11.8,64.7,10.7,63.1,10.7z"/>
<path fill="#E3051D" d="M53.8,14.5c-0.7,0-1.3,0.2-1.9,0.5c-0.9,0.5-1.5,1.3-1.7,2.3c-0.2,1-0.1,2,0.4,2.8c0.7,1.1,1.9,1.8,3.2,1.8
	h0c0.7,0,1.3-0.2,1.9-0.5c0.9-0.5,1.5-1.3,1.7-2.3c0.2-1,0.1-2-0.4-2.8C56.4,15.3,55.1,14.5,53.8,14.5z"/>
<path fill="#E3051D" d="M83.9,10.8c-0.3-0.1-0.7-0.1-1-0.1c-1.7,0-3.2,1.1-3.6,2.8c-0.5,2,0.6,4,2.6,4.6c0.3,0.1,0.7,0.1,1,0.1
	c1.7,0,3.2-1.1,3.6-2.8C87.1,13.4,85.9,11.3,83.9,10.8z"/>
<path fill="#E3051D" d="M86.4,1.8c-0.3-0.1-0.6-0.1-1-0.1c-1.7,0-3.2,1.1-3.6,2.8c-0.5,2,0.6,4,2.6,4.6c0.3,0.1,0.7,0.1,1,0.1
	c1.7,0,3.2-1.1,3.6-2.8C89.6,4.4,88.4,2.3,86.4,1.8z"/>
<path fill="#E3051D" d="M94.1,15.1c-0.6-0.3-1.2-0.5-1.9-0.5c-1.3,0-2.6,0.7-3.2,1.8c-0.5,0.9-0.6,1.9-0.4,2.8
	c0.2,1,0.9,1.8,1.7,2.3c0.6,0.3,1.2,0.5,1.9,0.5c1.3,0,2.6-0.7,3.2-1.8c0.5-0.9,0.6-1.9,0.4-2.8C95.6,16.4,95,15.6,94.1,15.1z"/>
<path fill="#E3051D" d="M100.6,9.3c-0.2-1-0.9-1.8-1.7-2.3c-0.6-0.3-1.2-0.5-1.9-0.5c-1.3,0-2.6,0.7-3.2,1.8
	c-0.5,0.9-0.7,1.9-0.4,2.8c0.2,1,0.9,1.8,1.7,2.3c0.6,0.3,1.2,0.5,1.9,0.5c1.3,0,2.6-0.7,3.2-1.8C100.7,11.3,100.8,10.3,100.6,9.3z"
	/>
<path fill="#E3051D" d="M60.6,9.1c0.3,0,0.7,0,1-0.1c2-0.5,3.2-2.6,2.6-4.6c-0.4-1.6-1.9-2.8-3.6-2.8c-0.3,0-0.7,0-1,0.1
	c-2,0.5-3.2,2.6-2.6,4.6C57.4,8,58.9,9.1,60.6,9.1L60.6,9.1z"/>
</svg>
