<?xml version="1.0" encoding="utf-8"?>
<!-- Generator: Adobe Illustrator 21.0.0, SVG Export Plug-In . SVG Version: 6.00 Build 0)  -->
<svg version="1.1" id="Слой_1" xmlns="http://www.w3.org/2000/svg" xmlns:xlink="http://www.w3.org/1999/xlink" x="0px" y="0px"
	 viewBox="0 0 26 26" enable-background="new 0 0 26 26" xml:space="preserve">
<path fill="#1C4DD2" d="M13,26c-1.2,0-2.4-0.2-3.6-0.5c-6.9-2-10.9-9.2-8.9-16.1c2-6.9,9.2-10.9,16.1-8.9c3.3,1,6.1,3.2,7.8,6.2
	c1.7,3,2.1,6.5,1.1,9.9c-1,3.3-3.2,6.1-6.2,7.8C17.3,25.4,15.2,26,13,26z M13,0.6c-2.1,0-4.1,0.5-6,1.6C4.1,3.8,2,6.4,1.1,9.6
	C-0.8,16.2,3,23,9.6,24.9c3.2,0.9,6.5,0.5,9.4-1.1c2.9-1.6,5-4.2,5.9-7.4c0.9-3.2,0.5-6.5-1.1-9.4c-1.6-2.9-4.2-5-7.4-5.9l0,0
	C15.3,0.7,14.1,0.6,13,0.6z"/>
<path fill="#1D63C6" d="M11.1,17.6c0-1.1-0.1-2.1-0.4-3.1c-0.4-1.6-0.3-3.1-0.3-4.8c0-0.5,0.7-0.5,0.7,0c0,1.6-0.1,3,0.3,4.6
	c0.3,1.1,0.4,2.2,0.4,3.3C11.8,18.1,11.1,18.1,11.1,17.6L11.1,17.6z"/>
<path fill="#1C4DD2" d="M17.5,9.5V9c0-0.1,0-1.6-0.1-2.2c0-0.2-0.1-0.3-0.1-0.4l0,0c-0.3-0.9-0.6-1.9-1.9-1.9h-4.3V4.2
	C11.1,4.1,11,4,11,4c-0.2-0.1-0.6-0.3-1.2,0C9.7,4,9.6,4.1,9.6,4.2v0.5C9.4,4.9,9.2,5.1,9,5.3C8.8,5.8,8.6,6.2,8.5,6.7
	c0,0,0,0,0,0.1c0,0.1,0,0.1,0,0.2c0,0.7-0.2,4.9,0.3,6.9c0.4,1.6,0.4,3.5,0.4,5.3c0,0.5,0,0.9,0,1.3c0,0.9,0.8,1.7,1.7,1.7h4.3
	c0.9,0,1.7-0.8,1.7-1.7c0-0.4,0-0.9,0-1.3c0-1.8-0.1-3.7,0.4-5.3C17.6,12.3,17.6,11,17.5,9.5z M16.6,13.7c-0.4,1.7-0.4,3.6-0.4,5.5
	c0,0.5,0,0.9,0,1.3c0,0.6-0.5,1.2-1.2,1.2h-4.3c-0.6,0-1.2-0.5-1.2-1.2c0-0.4,0-0.8,0-1.3c0-1.8,0.1-3.8-0.4-5.5
	C8.9,12.1,9,8.7,9,7.4h7.9C17,8,17,8.9,17,9v0.5C17,10.9,17,12.2,16.6,13.7z"/>
</svg>
