<?xml version="1.0" encoding="utf-8"?>
<!-- Generator: Adobe Illustrator 21.0.0, SVG Export Plug-In . SVG Version: 6.00 Build 0)  -->
<svg version="1.1" id="Слой_1" xmlns="http://www.w3.org/2000/svg" xmlns:xlink="http://www.w3.org/1999/xlink" x="0px" y="0px"
	 viewBox="0 0 253 41" enable-background="new 0 0 253 41" xml:space="preserve">
<path fill="#FF6401" d="M66.2,10.6V30c0,1-0.3,1.3-1.3,1.3h-2.5c-0.9,0-1.3-0.3-1.3-1.3v-6.5c-0.6,0.1-0.9,0.3-2.8,0.3
	c-6,0-8.4-2.8-8.4-8v-5.2c0-1,0.3-1.3,1.3-1.3h2.5c1,0,1.3,0.3,1.3,1.3v5.2c0,2.1,1.2,3.3,3.8,3.3c1.8,0,1.9-0.3,2.4-0.4v-8.1
	c0-1,0.3-1.3,1.3-1.3H65C65.9,9.3,66.2,9.6,66.2,10.6L66.2,10.6z M84.1,10.6v2.1c0,0.9-0.3,1.3-1.3,1.3h-7.7v4h6.1
	c1,0,1.3,0.3,1.3,1.3v2.1c0,1-0.3,1.3-1.3,1.3h-6.1v4h8c0.9,0,1.3,0.3,1.3,1.3V30c0,1-0.3,1.3-1.3,1.3H71.4c-0.9,0-1.3-0.3-1.3-1.3
	V10.6c0-1,0.3-1.3,1.3-1.3h11.5C83.8,9.3,84.1,9.6,84.1,10.6L84.1,10.6z M102,10.6v2.1c0,0.9-0.3,1.3-1.3,1.3h-3.8V30
	c0,1-0.3,1.3-1.3,1.3h-2.5c-0.9,0-1.3-0.3-1.3-1.3V13.9H88c-1,0-1.3-0.3-1.3-1.3v-2.1c0-1,0.3-1.3,1.3-1.3h12.7
	C101.6,9.3,102,9.6,102,10.6L102,10.6z M104.1,30V10.6c0-1,0.3-1.3,1.3-1.3h2.5c0.9,0,1.3,0.3,1.3,1.3v6h2.9c4.7,0,7.7,2.8,7.7,7.5
	s-3,7.3-7.7,7.3h-6.7C104.5,31.3,104.1,31,104.1,30z M109.3,26.6h2.4c1.8,0,2.9-0.9,2.9-2.6c0-1.8-1.1-2.8-2.9-2.8h-2.4
	C109.3,21.2,109.3,26.6,109.3,26.6z M122.6,9.3h2.6c0.9,0,1.3,0.3,1.3,1.3V30c0,0.9-0.3,1.3-1.3,1.3h-2.6c-0.9,0-1.3-0.3-1.3-1.3
	V10.5C121.3,9.6,121.6,9.3,122.6,9.3z M145.9,16.8c0,4.7-2.9,7.5-7.7,7.5H135V30c0,1-0.3,1.3-1.3,1.3h-2.5c-0.9,0-1.3-0.3-1.3-1.3
	V10.6c0-1,0.3-1.3,1.3-1.3h7C142.9,9.3,145.9,12.1,145.9,16.8z M140.6,16.8c0-1.8-1.1-2.9-2.9-2.9H135v5.7h2.7
	C139.5,19.6,140.6,18.6,140.6,16.8z M161.5,10.6v2.1c0,0.9-0.3,1.3-1.3,1.3h-7.4v4h5.8c1,0,1.3,0.3,1.3,1.3v2.1c0,1-0.3,1.3-1.3,1.3
	h-5.8v4h7.7c0.9,0,1.3,0.3,1.3,1.3V30c0,1-0.3,1.3-1.3,1.3H149c-0.9,0-1.3-0.3-1.3-1.3V10.6c0-1,0.3-1.3,1.3-1.3h11.2
	C161.2,9.3,161.5,9.6,161.5,10.6L161.5,10.6z"/>
<path fill="#FF6401" d="M230.7,30.2V10.8c0-1,0.3-1.3,1.3-1.3h2.5c0.9,0,1.3,0.3,1.3,1.3v6h2.9c4.7,0,7.7,2.8,7.7,7.5
	s-3,7.3-7.7,7.3H232C231.1,31.5,230.7,31.2,230.7,30.2L230.7,30.2z M235.8,26.9h2.4c1.8,0,2.9-0.9,2.9-2.6c0-1.8-1.1-2.8-2.9-2.8
	h-2.4C235.8,21.4,235.8,26.9,235.8,26.9z M249.2,9.5h2.6c0.9,0,1.3,0.3,1.3,1.3v19.5c0,0.9-0.3,1.3-1.3,1.3h-2.6
	c-0.9,0-1.3-0.3-1.3-1.3V10.7C247.9,9.8,248.2,9.5,249.2,9.5L249.2,9.5z M190.8,10.6V30c0,1-0.3,1.3-1.3,1.3H187
	c-1,0-1.3-0.3-1.3-1.3V13.9h-5.1v3.3c0,10.3-3,12.7-6.3,14.3c-0.9,0.4-1.3,0.3-1.7-0.6l-1.2-2.2c-0.4-0.9-0.3-1.3,0.6-1.7
	c1.6-0.8,3.6-2,3.6-9.7v-6.7c0-1,0.3-1.3,1.3-1.3h12.6C190.4,9.3,190.8,9.6,190.8,10.6L190.8,10.6z M207.8,31.3h-2.4
	c-1.6,0-2-0.3-2.3-1.2l-1-3h-3.3l-1,3c-0.3,0.9-0.7,1.2-2.3,1.2h-2.2c-0.9,0-1.2-0.4-0.9-1.3l5.3-19.7c0.3-0.9,0.7-1.1,1.6-1.1h2.4
	c0.9,0,1.3,0.2,1.6,1l5.3,19.8C208.9,30.9,208.7,31.3,207.8,31.3L207.8,31.3z M200.6,16.3h-0.3c0,0,0,1.7-0.7,4.8l-0.5,2.1h2.9
	l-0.5-2.1C200.6,17.1,200.6,16.3,200.6,16.3L200.6,16.3z M227.2,10.6V30c0,1-0.3,1.3-1.3,1.3h-2.5c-1,0-1.3-0.3-1.3-1.3V13.9h-6.3
	V30c0,1-0.3,1.3-1.3,1.3H212c-0.9,0-1.3-0.3-1.3-1.3V10.6c0-1,0.3-1.3,1.3-1.3H226C226.9,9.3,227.2,9.6,227.2,10.6L227.2,10.6z"/>
<ellipse fill="#16932B" cx="20.5" cy="20.5" rx="20.5" ry="20.5"/>
<ellipse fill="#FF6401" cx="20.5" cy="20.5" rx="18.2" ry="18.3"/>
<path fill="#1F9E38" d="M28.6,21.8l-0.2,0.9c-1.2-0.1-5.6-0.8-6.6-5.6l0.7-0.3C22.5,17.7,24,21.7,28.6,21.8z"/>
<path fill="#FFFFFF" d="M35.4,14.9c0.4-0.1,0.6-0.3,0.6-0.6s-0.4-0.4-0.7-0.3c-0.4,0.1-0.6,0.3-0.6,0.6
	C34.7,14.8,35.1,14.9,35.4,14.9z M12.4,26.8c0,0.7-0.2,1.3-0.9,1.3c0,0-0.4-0.1-0.8-0.1c-0.8,0-1,0.4-1,0.8c0,1.1,1.1,1.4,1.8,1.4
	c0.7,0,1.4-0.2,2-0.7c1-0.7,1.7-2.4,2-3.2c-0.3-0.1-0.6-0.2-1-0.4C14,26.4,13.2,26.7,12.4,26.8z"/>
<path fill="#FFFFFF" d="M23.1,24c0.1,0.5,0.3,1.3,0.4,1.7l-0.2,0.1v0c-0.2,0.1-0.3,0.1-0.4,0.2c-0.1,0.1-0.2,0.2-0.1,0.4
	c0,0,0,0,0,0c0.1,0.2,0.3,0.2,0.4,0.1c0.8-0.4,3.1-1.4,4.1-0.4c0.5,0.5,1.1,2.2,0.7,3.3c-0.2,0.7-0.7,1-1.5,1.1
	c-0.4,0-0.8,0-1.1-0.3c-0.7-0.6-0.7-1.9-0.7-1.9c0-0.1-0.1-0.2-0.2-0.3c-0.1,0-0.2,0-0.3,0c0,0-1.7,1.2-3.1,0.6
	c-2-1-1.6-3.6-1.6-3.7c0-0.2-0.1-0.3-0.2-0.3c-0.2,0-0.3,0.1-0.3,0.2c0,0-0.1,0.7,0,1.6c-1.5-0.2-2.8-0.4-3.9-0.9
	c0.6-0.7,0.9-1.6,0.9-2.5c0-0.2-0.1-0.3-0.3-0.3c-0.2,0-0.3,0.1-0.3,0.3c0,1.8-1.5,3.3-3.2,3.3c-1.3,0-2.5-0.8-3-2
	C9.1,24,8.9,24,8.8,24c-0.1,0.1-0.2,0.2-0.2,0.4c0.2,0.4,0.4,0.8,0.7,1.2c0,0,0,0,0,0c-0.7,1.5-1.9,3.1-4.1,2.5
	c-0.7-0.2-1.1-0.6-1.2-1.2c-0.1-0.4,0-0.9,0.3-1.1c0.3-0.2,0.6-0.3,1-0.1c1,0.4,1.7-1.3,2.3-3c0.3-0.9,0.8-2,1.1-2.2
	c0.4-0.2,1.3-0.3,1.8,0.4c0,0.2,0.1,0.6,0.1,0.6c0,0.1,0.2,0.3,0.3,0.2c0.2,0,0.3-0.2,0.2-0.3c-0.3-1.8,0.2-2.9,0.6-3.5
	c0,0-3.2-2.4-2.7-5.6c0-0.2,0.1-0.3,0.2-0.3c0.1,0,0.2,0.2,0.2,0.4c0.2,0.6,0.5,1.5,1.3,2.5c0.8,1,1.5,1.5,2.1,1.8
	c0.1,0,1.6,0.3,4.6,0.3c1.6,0,3.8-0.2,3.9-0.3c1,4.8,5.5,5.6,6.7,5.7h0l-0.1,0.1c-0.4,0.9-1,1.8-1.9,2.4c-0.8-0.1-1.6,0.1-2.3,0.4
	c0-0.2-0.2-0.7-0.4-1.6c0-0.2-0.2-0.3-0.4-0.2C23.1,23.7,23,23.9,23.1,24L23.1,24z M29.9,8.4c-0.6,0-1.2,1.5-1.4,2.1
	c0.5,0.1,1,0.2,1.5,0.4C30.1,10.7,30.3,8.4,29.9,8.4L29.9,8.4z"/>
<path fill="#FFFFFF" d="M29.6,18.6c0,0-0.2,0-0.4,0c0.3,0.6,0.8,1,1.5,1.2c1.3,0.3,2.6,0.2,4.1-1.1c0.7-0.7,1.5-1.9,1.6-3
	c-0.1,0.1-0.3,0.3-0.5,0.4c-0.8,0.3-1.8-0.1-2.1-0.9c-0.2-0.4,0-0.8,0.3-1.1c-0.3,0-0.5,0.1-0.8,0.2c-0.8,0.2-1.4,0.3-1.7,0
	c-0.2-0.2-0.3-0.6-0.5-1c-0.2-0.6-0.4-1.3-1-1.7c-1.3-0.8-2.8-0.5-2.8-0.5c-0.1,0-0.2,0-0.3-0.1c-0.1-0.1-0.3-1.8-0.5-2.2
	C26.2,8,26,7.9,25.9,7.9c-0.6,0-1.6,1.6-2,3.8c0,0.1,0,0.1-0.1,0.1c-0.7,0.8-1.6,3.6-1.6,4.6v0.1c0.1,0.9,1.6,4.9,6.2,5.1h0.1
	c1.7-0.1,3.4-0.9,4.3-1.3c-0.6,0.2-1.6,0.3-2.4,0.1c-0.9-0.2-1.6-0.8-1.9-1.5c-0.1,0.1-0.2,0.2-0.3,0.4c-0.1,0.1-0.3,0.2-0.4,0.1
	c-0.1-0.1-0.2-0.2-0.1-0.4c0.4-0.7,1.1-1.1,1.9-1c0.2,0,0.3,0.2,0.2,0.3C29.9,18.5,29.7,18.6,29.6,18.6L29.6,18.6z M30.9,13.8
	c0.2,0,0.3,0.2,0.3,0.5c0,0.3-0.2,0.5-0.3,0.5c-0.2,0-0.3-0.2-0.3-0.5C30.5,14.1,30.7,13.8,30.9,13.8L30.9,13.8z M26.4,11.1
	c-0.1,0-0.4,0.2-0.7,0.2s-0.3-0.2-0.1-0.9c0.2-0.6,0.4-0.9,0.4-0.9C26.4,9.2,26.5,11.1,26.4,11.1z M29.4,15.8
	c-0.3,0-0.6-0.4-0.6-0.8s0.2-0.9,0.5-0.9c0.3,0,0.6,0.4,0.6,0.8C29.9,15.4,29.7,15.8,29.4,15.8z M28,24.3c-0.3,0.4-0.6,0.7-1,1
	c0.2,0.1,0.4,0.2,0.5,0.3c0.3,0.2,0.5,0.6,0.7,1.1c0.6-0.2,1-0.4,1-0.4c0.1,0,0.2,0,0.3,0c0.1,0,0.1,0.1,0.2,0.2
	c0.2,1.7,1,2.2,1.7,2c0.5-0.2,0.9-0.5,1-1.1c0.3-1.1-0.4-2.5-0.9-3C30.8,23.7,29.2,23.9,28,24.3z"/>
</svg>
