<?xml version="1.0" encoding="utf-8"?>
<!-- Generator: Adobe Illustrator 21.0.0, SVG Export Plug-In . SVG Version: 6.00 Build 0)  -->
<svg version="1.1" id="Слой_1" xmlns="http://www.w3.org/2000/svg" xmlns:xlink="http://www.w3.org/1999/xlink" x="0px" y="0px"
	 viewBox="0 0 26 26" enable-background="new 0 0 26 26" xml:space="preserve">
<path fill="#1C4DD2" d="M13,26c-1.2,0-2.4-0.2-3.6-0.5c-3.3-1-6.1-3.2-7.8-6.2c-1.7-3-2.1-6.5-1.1-9.9c1-3.3,3.2-6.1,6.2-7.8
	c3-1.7,6.5-2.1,9.9-1.1l0,0c6.9,2,10.9,9.2,8.9,16.1c-1,3.3-3.2,6.1-6.2,7.8C17.3,25.5,15.2,26,13,26z M13,0.6c-2.1,0-4.1,0.5-6,1.6
	C4.1,3.8,2,6.4,1.1,9.6c-0.9,3.2-0.5,6.5,1.1,9.4c1.6,2.9,4.2,5,7.4,5.9c3.2,0.9,6.5,0.5,9.4-1.1c2.9-1.6,5-4.2,5.9-7.4
	C26.8,9.8,23,3,16.4,1.1l0,0C15.3,0.8,14.1,0.6,13,0.6z"/>
<path fill="#1C4DD2" d="M15.3,4c1.1,0,2.1,0.9,2.1,2.1l0,0v14c0,1.1-0.9,2.1-2.1,2.1l0,0h-4.6c-1.1,0-2.1-0.9-2.1-2.1l0,0V6
	C8.6,4.9,9.5,4,10.7,4L15.3,4L15.3,4z M12.8,20.2c-0.4,0.1-0.5,0.5-0.4,0.9c0.1,0.3,0.5,0.5,0.8,0.4c0.4-0.1,0.5-0.5,0.4-0.9
	C13.5,20.3,13.1,20.1,12.8,20.2z M16.8,6.2H9.2v13.5h7.6V6.2L16.8,6.2z"/>
</svg>
