<?xml version="1.0" encoding="utf-8"?>
<!-- Generator: Adobe Illustrator 21.0.0, SVG Export Plug-In . SVG Version: 6.00 Build 0)  -->
<svg version="1.1" id="Слой_1" xmlns="http://www.w3.org/2000/svg" xmlns:xlink="http://www.w3.org/1999/xlink" x="0px" y="0px"
	 viewBox="0 0 17 18" style="enable-background:new 0 0 17 18;" xml:space="preserve">
<style type="text/css">
	.st0{fill:#FFFFFF;}
</style>
<g>
	<path class="st0" d="M9,18c-0.3,0-0.5-0.1-0.7-0.3l-8-8C0.1,9.5,0,9.3,0,9c0-0.3,0.1-0.5,0.3-0.7l8-8c0.4-0.4,1-0.4,1.4,0
		c0.4,0.4,0.4,1,0,1.4L3.4,8H16c0.6,0,1,0.4,1,1s-0.4,1-1,1H3.4l6.3,6.3c0.4,0.4,0.4,1,0,1.4C9.5,17.9,9.3,18,9,18z"/>
</g>
</svg>
