<?xml version="1.0" encoding="utf-8"?>
<svg version="1.1" xmlns="http://www.w3.org/2000/svg" xmlns:xlink="http://www.w3.org/1999/xlink" x="0px" y="0px"
	 viewBox="0 0 47 52" style="enable-background:new 0 0 47 52;" xml:space="preserve">
<g>
	<!--<path fill="#A1A0A0" d="M20.9,52h5.2c6.2-10.3,10.1-16.5,11.7-18.7c2.5-3.5,4-7.7,4-12.3c0-11.6-9.4-21-20.9-21S0,9.4,0,21
        c0,4.9,1.7,9.4,4.4,12.9C7,37.2,12.5,43.2,20.9,52z"/>-->
    <path fill="#FFFFFF" d="M26.1,52c8.7-9,14.4-15.2,16.9-18.7c2.5-3.5,4-7.7,4-12.3C47,9.4,37.6,0,26.1,0S5.2,9.4,5.2,21
        c0,4.9,1.7,9.4,4.4,12.9C12.2,37.2,17.7,43.2,26.1,52z"/>
</g>
</svg>
