<?xml version="1.0" encoding="utf-8"?>
<!-- Generator: Adobe Illustrator 22.0.1, SVG Export Plug-In . SVG Version: 6.00 Build 0)  -->
<svg version="1.1" id="Слой_1" xmlns="http://www.w3.org/2000/svg" xmlns:xlink="http://www.w3.org/1999/xlink" x="0px" y="0px"
	 viewBox="0 0 610.9 75.9" style="enable-background:new 0 0 610.9 75.9;" xml:space="preserve">
<style type="text/css">
	.st0{fill:#16932B;}
	.st1{fill:#FF6927;}
	.st2{fill:#FFFFFF;}
	.st3{fill:#1F9E38;}
</style>
<g>
	<g>
		<circle class="st0" cx="39.8" cy="37.3" r="33"/>
	</g>
	<g>
		<g>
			<circle class="st1" cx="39.8" cy="37.3" r="29.4"/>
		</g>
	</g>
	<g>
		<g>
			<path class="st2" d="M63.9,28.2c0.6-0.1,1-0.5,0.9-0.9c-0.1-0.4-0.6-0.6-1.2-0.5c-0.6,0.1-1,0.5-0.9,0.9
				C62.8,28.1,63.3,28.3,63.9,28.2z"/>
		</g>
	</g>
	<g>
		<g>
			<path class="st2" d="M26.7,47.4c-0.1,1.1-0.3,2.2-1.4,2.1c0,0-0.7-0.2-1.3-0.2c-1.3,0-1.6,0.7-1.6,1.3c0,1.7,1.8,2.2,2.9,2.2
				c1.1,0,2.3-0.4,3.2-1.1c1.7-1.2,2.8-3.9,3.3-5.1c-0.5-0.2-1.1-0.4-1.6-0.6C29.3,46.9,28,47.4,26.7,47.4z"/>
		</g>
	</g>
	<g>
		<path class="st2" d="M44,43c0.2,0.7,0.5,2.1,0.7,2.7c0,0-1,0.4-1.1,0.5c-0.3,0.1-0.3,0.4-0.2,0.7c0.1,0.3,0.4,0.3,0.7,0.2
			c1.3-0.7,5-2.3,6.6-0.7c0.9,0.8,1.7,3.5,1.1,5.3c-0.3,1.1-1.1,1.7-2.4,1.8c-0.7,0.1-1.3-0.1-1.7-0.5c-1.1-1-1.1-3-1.1-3
			c0-0.2-0.1-0.3-0.3-0.4c-0.1-0.1-0.3-0.1-0.5,0c0,0-2.8,2-5.1,0.9c-3.3-1.6-2.5-5.9-2.5-6c0-0.3-0.1-0.5-0.4-0.5
			c-0.3,0-0.5,0.1-0.5,0.4c0,0-0.2,1.2,0,2.5c-2.4-0.3-4.5-0.7-6.3-1.4c1-1.1,1.5-2.5,1.5-4.1c0-0.3-0.2-0.5-0.5-0.5
			c-0.3,0-0.5,0.2-0.5,0.5c0,2.9-2.4,5.2-5.2,5.2c-2.1,0-4-1.3-4.9-3.3C21.5,43,21.3,43,21,43c-0.3,0.1-0.3,0.4-0.3,0.6
			c0.3,0.7,0.7,1.3,1.2,1.9c0,0,0,0,0,0c-1.1,2.4-3.1,5.1-6.5,4.1c-1.1-0.3-1.8-1-2-1.9c-0.1-0.7,0-1.4,0.5-1.7
			c0.4-0.3,1-0.4,1.6-0.1c1.7,0.6,2.7-2.2,3.7-4.9c0.5-1.5,1.2-3.2,1.7-3.5c0.6-0.4,2.1-0.4,2.9,0.7c0.1,0.3,0.2,1,0.2,1
			c0,0.2,0.3,0.4,0.5,0.3c0.3,0,0.4-0.3,0.4-0.5c-0.5-2.9,0.3-4.7,1-5.6c0,0-5.2-3.9-4.4-9.1c0-0.3,0.2-0.5,0.3-0.5
			c0.1,0,0.3,0.3,0.3,0.7c0.3,1,0.8,2.5,2.2,4.1c1.3,1.6,2.4,2.5,3.5,2.9c0.1,0,2.6,0.5,7.3,0.5c2.7,0,6.2-0.3,6.4-0.4
			c0.2,1.2,0.8,3.2,2.4,5c1.5,1.7,3.1,2.4,4.3,2.9c1.7,0.7,3.2,1,4.2,1.2c0,0,0,0,0,0c0,0.1-0.1,0.1-0.1,0.2c-0.6,1.5-1.6,2.8-3,3.9
			c-1.2-0.1-2.6,0.2-3.7,0.6c-0.1-0.3-0.3-1.1-0.7-2.5c-0.1-0.3-0.3-0.4-0.6-0.3C44.1,42.5,44,42.8,44,43z"/>
	</g>
	<g>
		<g>
			<path class="st2" d="M55,17.8c-0.9-0.1-1.9,2.4-2.3,3.3c0.8,0.1,1.6,0.3,2.4,0.7C55.3,21.5,55.6,17.8,55,17.8z"/>
		</g>
	</g>
	<g>
		<path class="st2" d="M54.5,34.2c0,0-0.3-0.1-0.7,0c0.4,1,1.3,1.7,2.5,2c2,0.5,4.3,0.4,6.7-1.8c1.2-1.1,2.4-3.1,2.6-4.9
			c-0.2,0.3-0.5,0.4-0.8,0.6c-1.3,0.4-2.9-0.2-3.3-1.4c-0.3-0.7,0-1.3,0.5-1.8c-0.4,0.1-0.8,0.2-1.3,0.3c-1.3,0.3-2.3,0.5-2.8,0.1
			c-0.4-0.4-0.5-1-0.8-1.7c-0.3-1-0.6-2.1-1.6-2.7c-2.1-1.3-4.5-0.9-4.6-0.9c-0.2,0-0.3,0-0.4-0.2c-0.1-0.1-0.4-2.8-0.9-3.6
			c-0.5-1-0.9-1.1-1-1.1c-1,0-2.6,2.5-3.2,6.1c0,0.1-0.1,0.1-0.1,0.2c-1.2,1.3-2.6,5.8-2.6,7.3l0,0c0,0,0,0.1,0,0.2
			c0.1,1.5,2.6,8,10.1,8.2c0.1,0,0.1,0,0.2,0c2.7-0.2,5.6-1.4,6.9-2.1c-0.9,0.3-2.5,0.4-3.9,0.1c-1.5-0.4-2.5-1.3-3.1-2.5
			c-0.2,0.1-0.3,0.3-0.4,0.6c-0.1,0.2-0.4,0.3-0.6,0.2c-0.3-0.1-0.3-0.4-0.2-0.6c0.8-1.5,2.3-1.7,3-1.6c0.3,0,0.4,0.3,0.4,0.5
			C55,34.1,54.8,34.2,54.5,34.2z M56.6,26.6c0.3,0,0.5,0.3,0.5,0.8c0,0.4-0.3,0.8-0.5,0.8c-0.3,0-0.5-0.3-0.5-0.8
			C56,27,56.3,26.6,56.6,26.6z M49.5,22.2c-0.2,0.1-0.6,0.3-1.2,0.3c-0.5,0.1-0.5-0.3-0.1-1.4c0.4-1,0.7-1.5,0.7-1.5
			C49.3,19.2,49.6,22.2,49.5,22.2z M54.2,29.8c-0.5,0-0.9-0.6-0.9-1.3s0.4-1.4,0.9-1.4c0.5,0,0.9,0.6,0.9,1.3S54.7,29.8,54.2,29.8z"
			/>
	</g>
	<g>
		<g>
			<path class="st2" d="M52,43.4c-0.4,0.6-0.9,1.1-1.6,1.7c0.3,0.1,0.6,0.3,0.9,0.5c0.4,0.4,0.8,1,1.1,1.7c0.9-0.3,1.6-0.7,1.6-0.7
				c0.1-0.1,0.3-0.1,0.4,0c0.1,0.1,0.2,0.2,0.3,0.4c0.4,2.8,1.6,3.6,2.7,3.2c0.9-0.3,1.4-0.9,1.6-1.7c0.4-1.8-0.6-4.1-1.5-4.9
				C56.4,42.5,53.9,42.9,52,43.4z"/>
		</g>
	</g>
	<g>
		<g>
			<path class="st3" d="M53.1,39.3l-0.6,1.2c0,0-0.1,0.1-0.1,0.1c-2.1-0.2-9.4-1.8-11.1-9.1c0,0,0-0.1,0.1-0.1l1.1-0.4
				c0.1,0,0.1,0,0.1,0.1c0.3,1.7,3.3,7.8,10.4,8.1C53.1,39.2,53.2,39.2,53.1,39.3z"/>
		</g>
	</g>
</g>
<path class="st1" d="M115.5,15c0-1.8,1.5-3.4,3.4-3.4h5c1.8,0,3.4,1.5,3.4,3.4v44.6c0,1.8-1.5,3.4-3.4,3.4h-5
	c-1.8,0-3.4-1.5-3.4-3.4V43.3c-2.6,2-6.2,3-11,3c-7.4,0-15.8-4-15.8-16.4V15c0-1.8,1.5-3.4,3.4-3.4h5c1.8,0,3.4,1.5,3.4,3.4v11.4
	c0,6.8,2.8,8.9,7.2,8.9c2.7,0,5.4-0.9,7.8-2.7V15z"/>
<path class="st1" d="M170.1,59.5c0,1.8-1.5,3.4-3.4,3.4h-24.4c-1.8,0-3.4-1.5-3.4-3.4V15c0-1.8,1.5-3.4,3.4-3.4H166
	c1.8,0,3.4,1.5,3.4,3.4v4.2c0,1.8-1.5,3.4-3.4,3.4h-15.3v9h13.1c1.8,0,3.4,1.5,3.4,3.4v4.2c0,1.8-1.5,3.4-3.4,3.4h-13.1v9.3h16
	c1.8,0,3.4,1.5,3.4,3.4V59.5z"/>
<path class="st1" d="M196.9,62.9c-1.8,0-3.4-1.5-3.4-3.4V22.6h-12c-1.8,0-3.4-1.5-3.4-3.4V15c0-1.8,1.5-3.4,3.4-3.4h35.8
	c1.8,0,3.4,1.5,3.4,3.4v4.2c0,1.8-1.5,3.4-3.4,3.4h-12v36.9c0,1.8-1.5,3.4-3.4,3.4H196.9z"/>
<path class="st1" d="M229.5,15c0-1.8,1.5-3.4,3.4-3.4h5c1.8,0,3.4,1.5,3.4,3.4v12.7c1.6-0.2,3.2-0.3,4.5-0.3
	c12.3,0,18.7,6.5,18.7,17.3c0,11.1-7.8,18.4-21.2,18.4c-2.9,0-6.4-0.1-10.4-0.1c-1.8,0-3.4-1.6-3.4-3.4V15z M241.2,51.8
	c1.8,0.2,2.9,0.3,3.5,0.3c4.9,0,7.3-2.3,7.3-7.1c0-4.4-2.8-6.6-7.3-6.6c-0.7,0-1.9,0.1-3.5,0.4V51.8z M281.1,59.5
	c0,1.8-1.5,3.4-3.4,3.4h-5c-1.8,0-3.4-1.5-3.4-3.4V15c0-1.8,1.5-3.4,3.4-3.4h5c1.8,0,3.4,1.5,3.4,3.4V59.5z"/>
<path class="st1" d="M324.4,16.2c3.3,3.2,4.9,7.3,4.9,12.2c0,4.8-1.8,8.9-5.2,12.2c-3.4,3.4-8.1,5.1-13.8,5.1
	c-2.6,0-4.5-0.1-5.7-0.2v14.1c0,1.8-1.5,3.4-3.4,3.4h-5c-1.8,0-3.4-1.5-3.4-3.4V15.1c0-1.8,1.5-3.5,3.4-3.5
	c5.2-0.1,9.3-0.1,12.3-0.1C315.8,11.5,321.1,13.1,324.4,16.2 M304.6,34.3c1.8,0.2,3.7,0.4,5.4,0.4c3.7,0,6.9-1.8,6.9-6.3
	c0-4-2.3-5.9-7.1-5.9c-0.2,0-1.9,0.1-5.1,0.2V34.3z"/>
<path class="st1" d="M370,59.5c0,1.8-1.5,3.4-3.4,3.4h-24.4c-1.8,0-3.4-1.5-3.4-3.4V15c0-1.8,1.5-3.4,3.4-3.4h23.7
	c1.8,0,3.4,1.5,3.4,3.4v4.2c0,1.8-1.5,3.4-3.4,3.4h-15.3v9h13.1c1.8,0,3.4,1.5,3.4,3.4v4.2c0,1.8-1.5,3.4-3.4,3.4h-13.1v9.3h16.1
	c1.8,0,3.4,1.5,3.4,3.4V59.5z"/>
<path class="st1" d="M436,59.5c0,1.8-1.5,3.4-3.4,3.4h-5c-1.8,0-3.4-1.5-3.4-3.4V22.6H413l-1.1,9.7c-3.1,24.6-7.8,30.9-18.2,31
	c-2,0-3.3-1.2-3.3-3v-4.4c0-2.3,0.7-3.2,3.1-4.3c2-0.9,3.7-3.3,4.8-7.3c1.1-4,2.1-11.4,2.9-22.4l0.5-6.9c0.2-2,1.8-3.4,3.6-3.4h27.3
	c1.8,0,3.4,1.5,3.4,3.4V59.5z"/>
<path class="st1" d="M478.8,52.1h-20.3l-3.3,8.4c-0.7,1.6-1.8,2.4-3.5,2.4h-4.5c-1.8,0-3.1-1.5-3.1-3.2c0-0.4,0.1-0.9,0.2-1.2
	L462.8,14c0.7-1.6,1.9-2.4,3.6-2.4h5.3c1.7,0,2.9,0.8,3.6,2.4l18.5,44.5c0.1,0.4,0.2,0.8,0.2,1.2c0,1.7-1.4,3.2-3.1,3.2h-5.2
	c-1.7,0-2.9-0.8-3.5-2.4L478.8,52.1z M468.7,26.6l-5.8,14.5h11.5L468.7,26.6z"/>
<path class="st1" d="M543.5,59.5c0,1.8-1.5,3.4-3.4,3.4h-5c-1.8,0-3.4-1.5-3.4-3.4V22.6h-18v36.9c0,1.8-1.5,3.4-3.4,3.4h-5
	c-1.8,0-3.4-1.5-3.4-3.4V15c0-1.8,1.5-3.4,3.4-3.4h34.7c1.8,0,3.4,1.5,3.4,3.4V59.5z"/>
<path class="st1" d="M555.2,15c0-1.8,1.5-3.4,3.4-3.4h5c1.8,0,3.4,1.5,3.4,3.4v12.7c1.6-0.2,3.1-0.3,4.5-0.3
	c12.3,0,18.7,6.5,18.7,17.3c0,11.1-7.8,18.4-21.2,18.4c-2.9,0-6.4-0.1-10.4-0.1c-1.8,0-3.4-1.6-3.4-3.4V15z M566.9,51.8
	c1.8,0.2,2.9,0.3,3.4,0.3c4.9,0,7.3-2.3,7.3-7.1c0-4.4-2.8-6.6-7.3-6.6c-0.7,0-1.9,0.1-3.5,0.4V51.8z M606.9,59.5
	c0,1.8-1.5,3.4-3.4,3.4h-5c-1.8,0-3.4-1.5-3.4-3.4V15c0-1.8,1.5-3.4,3.4-3.4h5c1.8,0,3.4,1.5,3.4,3.4V59.5z"/>
</svg>
