<?xml version="1.0" encoding="utf-8"?>
<!-- Generator: Adobe Illustrator 21.0.0, SVG Export Plug-In . SVG Version: 6.00 Build 0)  -->
<svg version="1.1" id="Слой_1" xmlns="http://www.w3.org/2000/svg" xmlns:xlink="http://www.w3.org/1999/xlink" x="0px" y="0px"
	 viewBox="0 0 110 110" enable-background="new 0 0 110 110" xml:space="preserve">
<path fill="#ED2224" d="M102.8,55c0-1.5,1.3-3.6,3.2-6.3c2.4-3.5,4.9-7,3.6-10.7c-1.3-3.7-5.7-5.3-9.7-6.7c-3.1-1.1-5.4-2-6.3-3.2
	c-0.9-1.2-1.1-3.5-1.2-6.7c-0.2-4.2-0.4-8.6-3.7-10.8c-1.2-0.8-2.7-1.3-4.5-1.3c-2.3,0-4.7,0.6-7.1,1.3l-0.1,0c-2,0.5-4.3,1.1-6,1.1
	c-0.5,0-0.9-0.1-1.3-0.2c-1.4-0.4-3-2.2-5.1-4.7C61.9,3.4,59.1,0,55,0c-4.1,0-6.9,3.4-9.7,6.7c-2.1,2.5-3.6,4.3-5,4.7
	c-0.4,0.1-0.8,0.2-1.3,0.2c-1.7,0-4-0.6-6-1.1l-0.1,0c-2.4-0.6-4.8-1.3-7.1-1.3c-1.8,0-3.3,0.4-4.5,1.3c-3.3,2.3-3.5,6.6-3.7,10.9
	c-0.2,3.2-0.3,5.5-1.2,6.7c-0.9,1.2-3.2,2.1-6.4,3.2c-3.9,1.4-8.4,3-9.7,6.7c-1.2,3.6,1.2,7.2,3.6,10.7c1.9,2.7,3.2,4.8,3.2,6.3
	c0,1.5-1.3,3.6-3.2,6.4c-2.4,3.5-4.8,7-3.6,10.7c1.3,3.7,5.7,5.3,9.7,6.7c3.1,1.1,5.4,2,6.3,3.2c0.9,1.2,1.1,3.7,1.2,6.8
	c0.2,4.2,0.4,8.5,3.7,10.8c1.2,0.8,2.7,1.3,4.5,1.3c2.3,0,4.7-0.6,7.1-1.3l0.1,0c2-0.5,4.2-1.1,5.9-1.1c0.5,0,1,0.1,1.3,0.2
	c1.4,0.4,3.1,2.3,5,4.7c2.8,3.3,5.6,6.7,9.7,6.7c4.1,0,6.9-3.4,9.7-6.8c2.1-2.5,3.6-4.2,5-4.7c0.4-0.1,0.8-0.2,1.3-0.2
	c1.7,0,4,0.6,6,1.1c2.4,0.6,4.8,1.3,7.1,1.3h0c1.8,0,3.3-0.4,4.5-1.3c3.3-2.3,3.5-6.6,3.7-10.8c0.1-3.1,0.3-5.6,1.2-6.8
	c0.9-1.2,3.2-2.1,6.4-3.2c3.9-1.4,8.4-3,9.7-6.7c1.2-3.6-1.2-7.2-3.6-10.7C104.2,58.6,102.8,56.5,102.8,55"/>
</svg>
