<?xml version="1.0" encoding="utf-8"?>
<!-- Generator: Adobe Illustrator 21.0.0, SVG Export Plug-In . SVG Version: 6.00 Build 0)  -->
<svg version="1.1" id="icon8" xmlns="http://www.w3.org/2000/svg" xmlns:xlink="http://www.w3.org/1999/xlink" x="0px" y="0px"
	 viewBox="0 0 95 95" style="enable-background:new 0 0 95 95;" xml:space="preserve">
<style type="text/css">
	.st0{fill:#838590;}
</style>
<g>
	<path class="st0" d="M74.9,29.2c2.5,0,4.7,2,4.7,4.7v24.5c0,2.5-2,4.7-4.7,4.7h-6.7l-2,6.9c0,0.2-0.2,0.2-0.5,0.2
		c-0.2,0-0.2,0-0.5-0.2L61.6,63H20.1c-2.5,0-4.7-2-4.7-4.7V33.9c0-2.5,2-4.7,4.7-4.7L74.9,29.2 M74.9,25H20.1c-4.7,0-8.7,4-8.7,8.7
		v24.5c0,4.7,4,8.7,8.7,8.7h39.3l2.5,4.7c0.7,1.5,2.2,2.5,4,2.5c2,0,3.7-1.2,4.5-3.2l1.2-4h3.5c4.7,0,8.7-4,8.7-8.7V33.6
		C83.6,28.9,79.9,25,74.9,25L74.9,25z"/>
</g>
<g>
	<path class="st0" d="M24.5,38.1c0.7-0.2,2.5-0.2,4-0.2c2,0,3,0.2,4,0.7c1,0.5,1.5,1.5,1.5,2.7c0,1.2-0.7,2.2-2.2,3l0,0
		c1.5,0.5,2.7,1.5,2.7,3.2c0,1.2-0.5,2.2-1.5,3c-1,0.7-2.7,1.2-5.2,1.2c-1.5,0-2.7,0-3.2-0.2C24.5,51.4,24.5,38.1,24.5,38.1z
		 M27.5,43.3h1c1.7,0,2.5-0.7,2.5-1.7c0-1-0.7-1.5-2.2-1.5c-0.7,0-1,0-1.2,0V43.3z M27.5,49.2c0.2,0,0.7,0,1.2,0
		c1.5,0,2.7-0.5,2.7-2c0-1.2-1.2-2-2.7-2h-1.2V49.2z"/>
	<path class="st0" d="M36.6,37.8h3v10.9H45v2.5h-8.4C36.6,51.2,36.6,37.8,36.6,37.8z"/>
	<path class="st0" d="M58.4,44.5c0,4.5-2.7,7.2-6.7,7.2s-6.4-3-6.4-6.9c0-4,2.7-7.2,6.7-7.2C56.2,37.6,58.4,40.8,58.4,44.5z
		 M48.7,44.7c0,2.7,1.2,4.5,3.2,4.5s3.2-2,3.2-4.7c0-2.5-1.2-4.5-3.2-4.5C49.7,40,48.7,42,48.7,44.7z"/>
	<path class="st0" d="M71.7,50.9c-1,0.2-2.7,0.7-4.5,0.7c-2.5,0-4.2-0.7-5.4-1.7c-1.2-1.2-2-3-2-4.9c0-4.5,3.2-7.2,7.7-7.2
		c1.7,0,3,0.2,3.7,0.7L70.5,41c-0.7-0.2-1.7-0.5-3.2-0.5c-2.5,0-4.5,1.5-4.5,4.5c0,2.7,1.7,4.5,4.2,4.5c0.7,0,1.2,0,1.5-0.2V46h-2
		v-2.5h4.9v7.4H71.7z"/>
</g>
</svg>
