<?xml version="1.0" encoding="utf-8"?>
<!-- Generator: Adobe Illustrator 21.0.0, SVG Export Plug-In . SVG Version: 6.00 Build 0)  -->
<svg version="1.1" id="icon8" xmlns="http://www.w3.org/2000/svg" xmlns:xlink="http://www.w3.org/1999/xlink" x="0px" y="0px"
	 viewBox="0 0 32 24" style="enable-background:new 0 0 32 24;" xml:space="preserve">
<style type="text/css">
	.st0{fill:#838590;}
</style>
<g>
	<path class="st0" d="M27.1,3.8c1,0,1.9,0.8,1.9,1.9v9.9c0,1-0.8,1.9-1.9,1.9h-2.7l-0.8,2.8c0,0.1-0.1,0.1-0.2,0.1
		c-0.1,0-0.1,0-0.2-0.1l-1.5-2.8H4.9c-1,0-1.9-0.8-1.9-1.9V5.7c0-1,0.8-1.9,1.9-1.9L27.1,3.8 M27.1,2.1H4.9C3,2.1,1.4,3.7,1.4,5.6
		v9.9C1.4,17.4,3,19,4.9,19h15.9l1,1.9c0.3,0.6,0.9,1,1.6,1c0.8,0,1.5-0.5,1.8-1.3l0.5-1.6h1.4c1.9,0,3.5-1.6,3.5-3.5V5.6
		C30.6,3.7,29.1,2.1,27.1,2.1L27.1,2.1z"/>
</g>
<g>
	<path class="st0" d="M6.7,7.4c0.3-0.1,1-0.1,1.6-0.1c0.8,0,1.2,0.1,1.6,0.3c0.4,0.2,0.6,0.6,0.6,1.1s-0.3,0.9-0.9,1.2l0,0
		c0.6,0.2,1.1,0.6,1.1,1.3c0,0.5-0.2,0.9-0.6,1.2C9.7,12.7,9,12.9,8,12.9c-0.6,0-1.1,0-1.3-0.1C6.7,12.8,6.7,7.4,6.7,7.4z M7.9,9.5
		h0.4c0.7,0,1-0.3,1-0.7c0-0.4-0.3-0.6-0.9-0.6c-0.3,0-0.4,0-0.5,0V9.5z M7.9,11.9c0.1,0,0.3,0,0.5,0c0.6,0,1.1-0.2,1.1-0.8
		c0-0.5-0.5-0.8-1.1-0.8H7.9V11.9z"/>
	<path class="st0" d="M11.6,7.3h1.2v4.4H15v1h-3.4C11.6,12.7,11.6,7.3,11.6,7.3z"/>
	<path class="st0" d="M20.4,10c0,1.8-1.1,2.9-2.7,2.9s-2.6-1.2-2.6-2.8c0-1.6,1.1-2.9,2.7-2.9C19.5,7.2,20.4,8.5,20.4,10z
		 M16.5,10.1c0,1.1,0.5,1.8,1.3,1.8s1.3-0.8,1.3-1.9c0-1-0.5-1.8-1.3-1.8C16.9,8.2,16.5,9,16.5,10.1z"/>
	<path class="st0" d="M25.8,12.6c-0.4,0.1-1.1,0.3-1.8,0.3c-1,0-1.7-0.3-2.2-0.7c-0.5-0.5-0.8-1.2-0.8-2c0-1.8,1.3-2.9,3.1-2.9
		c0.7,0,1.2,0.1,1.5,0.3l-0.3,1C25,8.5,24.6,8.4,24,8.4c-1,0-1.8,0.6-1.8,1.8c0,1.1,0.7,1.8,1.7,1.8c0.3,0,0.5,0,0.6-0.1v-1.3h-0.8
		v-1h2L25.8,12.6L25.8,12.6z"/>
</g>
</svg>
