<?xml version="1.0" encoding="utf-8"?>
<!-- Generator: Adobe Illustrator 21.0.0, SVG Export Plug-In . SVG Version: 6.00 Build 0)  -->
<svg version="1.1" id="icon8" xmlns="http://www.w3.org/2000/svg" xmlns:xlink="http://www.w3.org/1999/xlink" x="0px" y="0px"
	 viewBox="0 0 95 95" style="enable-background:new 0 0 95 95;" xml:space="preserve">
<style type="text/css">
	.st0{fill:#838590;}
</style>
<g>
	<path class="st0" d="M17.3,36.7c1.5-0.4,2.8-1.5,4.3-1.3c4,0.4,7.9,1.3,12.3,1.9c0.9-2.3,1.7-5.3,2.6-8.1c1.3-3.8,1.7-4,5.7-3.4
		c3.2,0.4,6.6,0.4,10,0.6c1.5,0,2.8,0.4,2.6,2.1c0,1.7-1.3,1.9-2.8,1.9c-2.6-0.2-5.1-0.4-7.4-0.4c-0.6,0-1.7,0.6-2.1,1.3
		c-0.9,1.7-1.3,3.4-1.9,5.5c0.2,0.2,0.4,0.2,0.6,0.4c1.3,0.6,3.4,1.1,3.8,2.1c1.1,2.6,1.5,5.3,2.1,8.1c0.2,1.3-1.5,1.9-0.6,3.6
		c2.8,5.5,4.9,11.5,10,15.3c2.3,1.9,5.3,3.4,8.3,4c3.8,0.9,7.7,0.6,11.5,1.1c1.1,0.2,2.1,0.6,3.4,1.1c0,0.6,0,1.3,0,1.9
		c-1.1,0.4-2.1,0.9-3.4,0.9c-1.7,0.2-3.2,0-4.9,0c-9.6-0.2-17.7-3.2-23-11.7c-1.9-3-3.2-6.2-4.9-9.1c-1.3-2.3-2.6-4.9-4-7
		c-1.1-1.5-2.8-2.8-4.7-4.5c0,7.2,0,13.4,0,19.8c0,3.4,0.2,6.8,0,10.2c0,0.9-1.1,2.1-1.9,2.3c-1.5,0.4-2.1-0.9-2.1-2.1
		c0-0.9-0.2-1.5-0.2-2.3c-3,0-5.7,0-8.7,0c-0.6,5.1-1.5,5.7-4.5,3.6C17.3,62,17.3,49.3,17.3,36.7z M30.3,49.5c-3,0-5.7,0-8.5,0
		c0,2.1,0,4.3,0,6.6c1.3,0,2.3,0,3.4,0c6,0,6,0,5.3-6.2C30.5,49.9,30.5,49.7,30.3,49.5z M30.5,60.3c-3,0-5.7,0-8.7,0
		c0,2.1,0,4.3,0,6.4c3,0,5.7,0,8.7,0C30.5,64.4,30.5,62.4,30.5,60.3z M21.8,39.5c0,2.3,0,4,0,5.7c3,0,5.7,0,8.5,0
		c0.6-4,0.4-4.5-3.2-5.1C25.6,39.7,23.7,39.7,21.8,39.5z"/>
	<path class="st0" d="M47.5,21c0,2.1-1.7,4-3.8,4c-2.1,0-3.8-1.5-4-3.6c-0.2-2.3,1.5-4,3.6-4.3C45.6,17.1,47.5,18.8,47.5,21z"/>
</g>
</svg>
