<?xml version="1.0" encoding="utf-8"?>
<!-- Generator: Adobe Illustrator 21.0.0, SVG Export Plug-In . SVG Version: 6.00 Build 0)  -->
<svg version="1.1" id="icon3" xmlns="http://www.w3.org/2000/svg" xmlns:xlink="http://www.w3.org/1999/xlink" x="0px" y="0px"
	 viewBox="0 0 40 40" style="enable-background:new 0 0 40 40;" xml:space="preserve">
<style type="text/css">
	.st0{fill:#838590;}
</style>
<g>
	<path class="st0" d="M5.3,15.4c0.7-0.2,1.3-0.7,2-0.6c1.9,0.2,3.7,0.6,5.8,0.9c0.4-1.1,0.8-2.5,1.2-3.8c0.6-1.8,0.8-1.9,2.7-1.6
		c1.5,0.2,3.1,0.2,4.7,0.3c0.7,0,1.3,0.2,1.2,1c0,0.8-0.6,0.9-1.3,0.9c-1.2-0.1-2.4-0.2-3.5-0.2c-0.3,0-0.8,0.3-1,0.6
		c-0.4,0.8-0.6,1.6-0.9,2.6c0.1,0.1,0.2,0.1,0.3,0.2c0.6,0.3,1.6,0.5,1.8,1c0.5,1.2,0.7,2.5,1,3.8c0.1,0.6-0.7,0.9-0.3,1.7
		c1.3,2.6,2.3,5.4,4.7,7.2c1.1,0.9,2.5,1.6,3.9,1.9c1.8,0.4,3.6,0.3,5.4,0.5c0.5,0.1,1,0.3,1.6,0.5c0,0.3,0,0.6,0,0.9
		c-0.5,0.2-1,0.4-1.6,0.4c-0.8,0.1-1.5,0-2.3,0c-4.5-0.1-8.3-1.5-10.8-5.5c-0.9-1.4-1.5-2.9-2.3-4.3c-0.6-1.1-1.2-2.3-1.9-3.3
		c-0.5-0.7-1.3-1.3-2.2-2.1c0,3.4,0,6.3,0,9.3c0,1.6,0.1,3.2,0,4.8c0,0.4-0.5,1-0.9,1.1c-0.7,0.2-1-0.4-1-1c0-0.4-0.1-0.7-0.1-1.1
		c-1.4,0-2.7,0-4.1,0c-0.3,2.4-0.7,2.7-2.1,1.7C5.3,27.3,5.3,21.3,5.3,15.4z M11.4,21.4c-1.4,0-2.7,0-4,0c0,1,0,2,0,3.1
		c0.6,0,1.1,0,1.6,0c2.8,0,2.8,0,2.5-2.9C11.5,21.6,11.5,21.5,11.4,21.4z M11.5,26.5c-1.4,0-2.7,0-4.1,0c0,1,0,2,0,3
		c1.4,0,2.7,0,4.1,0C11.5,28.4,11.5,27.5,11.5,26.5z M7.4,16.7c0,1.1,0,1.9,0,2.7c1.4,0,2.7,0,4,0c0.3-1.9,0.2-2.1-1.5-2.4
		C9.2,16.8,8.3,16.8,7.4,16.7z"/>
	<path class="st0" d="M19.5,8c0,1-0.8,1.9-1.8,1.9s-1.8-0.7-1.9-1.7c-0.1-1.1,0.7-1.9,1.7-2C18.6,6.2,19.5,7,19.5,8z"/>
</g>
</svg>
