<?xml version="1.0" encoding="utf-8"?>
<!-- Generator: Adobe Illustrator 21.0.0, SVG Export Plug-In . SVG Version: 6.00 Build 0)  -->
<svg version="1.1" xmlns="http://www.w3.org/2000/svg" xmlns:xlink="http://www.w3.org/1999/xlink" x="0px" y="0px" width="162" height="32"
	 viewBox="0 0 162 32" style="enable-background:new 0 0 162 32;" xml:space="preserve">
<style type="text/css">
	.st0{fill:#FF4C13;}
	.st1{fill:#FFFFFF;}
</style>
<path class="st0" d="M146,32H16C7.2,32,0,24.8,0,16v0C0,7.2,7.2,0,16,0l130,0c8.8,0,16,7.2,16,16v0C162,24.8,154.8,32,146,32z"/>
<g>
	<g>
		<path class="st1" d="M26.2,16.4l-3.8-5.3h2.2l2.7,3.9l2.7-3.9h2.2l-3.8,5.3l3.9,5.5h-2.2l-2.8-4.1l-2.9,4.1h-2.2L26.2,16.4z"/>
		<path class="st1" d="M33.1,16.5c0-3,2.3-5.6,5.7-5.6c3.3,0,5.6,2.5,5.6,5.6c0,3-2.3,5.6-5.7,5.6S33.1,19.6,33.1,16.5z M42.4,16.5
			c0-2.1-1.5-3.8-3.7-3.8s-3.6,1.7-3.6,3.8c0,2.1,1.5,3.8,3.7,3.8S42.4,18.7,42.4,16.5z"/>
		<path class="st1" d="M53.1,17.7c-0.8,0.4-2,0.9-3.1,0.9c-2.1,0-3.6-1.1-3.6-3.4v-4h1.9v3.5c0,1.4,0.7,2.2,2,2.2
			c1,0,2.1-0.4,2.7-0.8v-4.8H55v10.8h-1.9V17.7z"/>
		<path class="st1" d="M57.5,21.6l0.7-1.4c0.4,0.2,0.8,0.3,1.3,0.3c0.5,0,1.2-0.3,1.7-1.2l-4.5-8.2h2.1l3.4,6.3l3-6.3h2.1L63,19.6
			c-0.9,1.8-2,2.5-3.4,2.5C58.8,22.1,58.1,21.9,57.5,21.6z"/>
		<path class="st1" d="M73.2,16.5c0-3.1,2.3-5.6,5.6-5.6c2,0,3.2,0.7,4.2,1.7L81.8,14c-0.9-0.8-1.8-1.3-3-1.3
			c-2.1,0-3.6,1.7-3.6,3.8c0,2.1,1.5,3.8,3.6,3.8c1.3,0,2.2-0.5,3.1-1.4l1.2,1.2c-1.1,1.2-2.4,1.9-4.4,1.9
			C75.5,22.1,73.2,19.7,73.2,16.5z"/>
		<path class="st1" d="M85.1,11.1H87v5.4l5.1-5.4h2.3l-4.5,4.6l4.7,6.2h-2.3l-3.7-4.9L87,18.8v3.1h-1.9V11.1z"/>
		<path class="st1" d="M96.3,11.1h1.9V19l5.5-7.9h1.8v10.8h-1.9v-7.9L98,21.9h-1.8V11.1z"/>
		<path class="st1" d="M106.9,20.2h1.1c0.9-1.8,1.4-4,1.4-7.6v-1.5h7.5v9.1h1.3l-0.3,4h-1.6v-2.3h-7.6l-0.2,2.3h-1.7V20.2z
			 M115,20.2v-7.4h-3.8v1.2c0,2.5-0.4,4.7-1.2,6.2H115z"/>
		<path class="st1" d="M119.9,11.1h1.9v5.4l5.1-5.4h2.3l-4.5,4.6l4.7,6.2h-2.3l-3.7-4.9l-1.7,1.7v3.1h-1.9V11.1z"/>
		<path class="st1" d="M130.9,21.6l0.7-1.4c0.4,0.2,0.8,0.3,1.3,0.3c0.5,0,1.2-0.3,1.7-1.2l-4.5-8.2h2.1l3.4,6.3l3-6.3h2.1l-4.2,8.4
			c-0.9,1.8-2,2.5-3.4,2.5C132.1,22.1,131.5,21.9,130.9,21.6z"/>
	</g>
</g>
</svg>
