<?xml version="1.0" encoding="utf-8"?>
<!-- Generator: Adobe Illustrator 21.0.0, SVG Export Plug-In . SVG Version: 6.00 Build 0)  -->
<svg version="1.1" xmlns="http://www.w3.org/2000/svg" xmlns:xlink="http://www.w3.org/1999/xlink" x="0px" y="0px" width="862" height="60"
	 viewBox="0 0 862 60" style="enable-background:new 0 0 862 60;" xml:space="preserve">
<style type="text/css">
	.st0{fill:#FFFFFF;}
</style>
<g>
	<path class="st0" d="M1.3,29.2h8.9v4.5H1.3V29.2z"/>
	<path class="st0" d="M14.8,25.8l-3.2,0.7l-1-4l5.6-1.6H20v18.9h-5.2V25.8z"/>
	<path class="st0" d="M23,30.5c0-5.3,3.4-9.8,8.8-9.8c5.4,0,8.7,4.4,8.7,9.8c0,5.3-3.4,9.8-8.8,9.8C26.3,40.2,23,35.8,23,30.5z
		 M35.2,30.5c0-3-1.4-5.1-3.5-5.1s-3.5,2.1-3.5,5.1c0,3,1.4,5.1,3.5,5.1S35.2,33.5,35.2,30.5z"/>
	<path class="st0" d="M42.6,25.9c0-2.8,1.9-5,4.9-5c3,0,4.9,2.3,4.9,5.1c0,2.8-2,5-4.9,5C44.5,30.9,42.6,28.7,42.6,25.9z M59.3,21.1
		h3.7L48.3,39.9h-3.7L59.3,21.1z M49.1,25.9c0-1.2-0.7-2.1-1.6-2.1c-0.9,0-1.6,0.9-1.6,2.1c0,1.2,0.7,2.1,1.6,2.1
		C48.4,28,49.1,27.1,49.1,25.9z M55.3,35.1c0-2.8,1.9-5,4.9-5c3,0,4.9,2.3,4.9,5.1c0,2.7-2,5-4.9,5C57.2,40.1,55.3,37.9,55.3,35.1z
		 M61.7,35.1c0-1.2-0.7-2.1-1.6-2.1c-1,0-1.6,0.9-1.6,2.1c0,1.2,0.7,2.1,1.6,2.1C61.1,37.2,61.7,36.3,61.7,35.1z"/>
	<path class="st0" d="M75.2,21.1h5.3v7h6.7v-7h5.3v18.8h-5.3v-7.1h-6.7v7.1h-5.3V21.1z"/>
	<path class="st0" d="M102.3,21h5.1l8.1,18.9h-5.6l-1.4-3.4h-7.3l-1.4,3.4h-5.5L102.3,21z M106.9,32.5l-2.1-5.3l-2.1,5.3H106.9z"/>
	<path class="st0" d="M124.8,21.1h9.7c2.4,0,4.1,0.6,5.2,1.7c0.8,0.8,1.2,1.7,1.2,3.1c0,2.2-1.2,3.5-2.9,4.2c2.3,0.8,3.8,2,3.8,4.6
		c0,3.2-2.7,5.2-7.2,5.2h-9.8V21.1z M133.2,28.6c1.6,0,2.5-0.5,2.5-1.7c0-1-0.8-1.6-2.4-1.6h-3.4v3.3H133.2z M134,35.7
		c1.6,0,2.5-0.6,2.5-1.8c0-1-0.8-1.7-2.6-1.7h-4v3.5H134z"/>
	<path class="st0" d="M143.5,30.5c0-5.5,4.3-9.8,10-9.8c3.9,0,6.3,1.7,8,4l-3.8,2.9c-1.1-1.3-2.4-2.2-4.2-2.2c-2.7,0-4.5,2.2-4.5,5
		c0,2.8,1.9,5,4.5,5c2,0,3.1-0.9,4.3-2.3l4,2.8c-1.8,2.4-4.2,4.2-8.4,4.2C147.9,40.2,143.5,36.1,143.5,30.5z"/>
	<path class="st0" d="M164,21.1h15.2v4.4h-10v2.8h9.1v4.1h-9.1v3h10.2v4.4H164V21.1z"/>
	<path class="st0" d="M190.3,21.1h8.5c2.2,0,3.9,0.6,5,1.7c0.8,0.8,1.3,1.8,1.3,3.2c0,2.3-1.3,3.5-2.7,4.2c2.2,0.8,3.8,2,3.8,4.6
		c0,3.4-2.8,5.1-7,5.1h-8.8V21.1z M198.1,29c2.1,0,3.6-0.8,3.6-2.6c0-1.5-1.2-2.4-3.3-2.4h-4.8v5H198.1z M199.1,36.9
		c2.3,0,3.7-0.9,3.7-2.6c0-1.6-1.3-2.5-3.9-2.5h-5.3v5.1H199.1z"/>
	<path class="st0" d="M218,21.1h3.5l5.8,8.9l5.8-8.9h3.5v18.8h-3.3V26.4l-6,8.8h-0.1l-5.9-8.8v13.4H218V21.1z"/>
	<path class="st0" d="M248.2,21h3.1l8.3,18.9h-3.5l-1.9-4.5h-9l-2,4.5h-3.4L248.2,21z M253,32.4l-3.3-7.5l-3.2,7.5H253z"/>
	<path class="st0" d="M262.9,21.1h12.8v3h-9.5v15.8h-3.3V21.1z"/>
	<path class="st0" d="M282.5,21h3.1l8.3,18.9h-3.5l-1.9-4.5h-9l-2,4.5h-3.4L282.5,21z M287.2,32.4l-3.3-7.5l-3.2,7.5H287.2z"/>
	<path class="st0" d="M309.7,25.8c0,2.4-1.5,3.7-3.2,4.4c2.1,0.6,3.7,2.1,3.7,4.5c0,3.1-2.7,5.5-7,5.5c-3.7,0-6.1-1.1-8.2-3.1
		l1.8-2.3c1.7,1.6,3.7,2.5,6.3,2.5c2,0,3.7-1,3.7-2.8c0-1.9-1.9-2.7-4.3-2.7h-2.1V29h2.1c2.4,0,3.9-1,3.9-2.7c0-1.6-1.5-2.6-3.6-2.6
		c-2.2,0-3.9,0.7-5.3,2.1l-1.8-2.1c1.8-1.7,4-2.8,7.3-2.8C307,20.8,309.7,22.9,309.7,25.8z"/>
	<path class="st0" d="M314.1,21.1h3.3v13.7l9.6-13.7h3.1v18.8h-3.3V26.2l-9.6,13.7h-3.1V21.1z"/>
	<path class="st0" d="M335,21.1h3.3v7.8h9v-7.8h3.3v18.8h-3.3V32h-9v7.9H335V21.1z"/>
	<path class="st0" d="M355.6,21.1h14.1V24h-10.7v4.9h9.5v2.9h-9.5v5h10.9v2.9h-14.2V21.1z"/>
	<path class="st0" d="M380.6,32.9v-0.2l4.5-5.9l2.5,1.3l-3.6,4.7l3.6,4.7l-2.5,1.3L380.6,32.9z M387.4,32.9v-0.2l4.5-5.9l2.5,1.3
		l-3.6,4.7l3.6,4.7l-2.5,1.3L387.4,32.9z"/>
	<path class="st0" d="M409.4,32.4c-1.4,0.7-3.5,1.6-5.4,1.6c-3.7,0-6.3-1.9-6.3-6v-6.9h3.3v6.1c0,2.4,1.2,3.8,3.5,3.8
		c1.8,0,3.6-0.7,4.8-1.5v-8.4h3.3v18.8h-3.3V32.4z"/>
	<path class="st0" d="M417.6,21.1h14.1V24h-10.7v4.9h9.5v2.9h-9.5v5h10.9v2.9h-14.2V21.1z"/>
	<path class="st0" d="M440.4,24.2h-6v-3.1h15.4v3.1h-6v15.7h-3.4V24.2z"/>
	<path class="st0" d="M453.3,21.1h3.3v6.8h4.4c4.3,0,7.1,2.1,7.1,5.9s-2.8,6.1-7.1,6.1h-7.6V21.1z M460.9,36.9
		c2.5,0,3.9-1.1,3.9-3.2c0-1.9-1.4-3-4-3h-4.2v6.2H460.9z M470.3,21.1h3.3v18.8h-3.3V21.1z"/>
	<path class="st0" d="M478.5,21.1h7.5c4.4,0,7.2,2.5,7.2,6.3c0,4.2-3.4,6.4-7.6,6.4h-3.8v6h-3.3V21.1z M485.7,30.9
		c2.5,0,4.1-1.4,4.1-3.4c0-2.2-1.6-3.4-4.1-3.4h-3.9v6.8H485.7z"/>
	<path class="st0" d="M496.6,21.1h14.1V24H500v4.9h9.5v2.9H500v5h10.9v2.9h-14.2V21.1z"/>
	<path class="st0" d="M520.6,39.8l0.3-2.7c0.2,0.1,0.7,0.2,1.1,0.2c1.9,0,3.7-1.2,3.7-12.4v-3.7h13v18.8h-3.3V24.1h-6.6v1.7
		c0,11.9-2.2,14.3-5.9,14.3C522.2,40.1,521.1,39.9,520.6,39.8z"/>
	<path class="st0" d="M550.3,21h3.1l8.3,18.9h-3.5l-1.9-4.5h-9l-2,4.5H542L550.3,21z M555.1,32.4l-3.3-7.5l-3.2,7.5H555.1z"/>
	<path class="st0" d="M565,21.1h15.5v18.8h-3.3V24.1h-8.8v15.8H565V21.1z"/>
	<path class="st0" d="M585.4,21.1h3.3v6.8h4.4c4.3,0,7.1,2.1,7.1,5.9s-2.8,6.1-7.1,6.1h-7.6V21.1z M593,36.9c2.5,0,3.9-1.1,3.9-3.2
		c0-1.9-1.4-3-4-3h-4.2v6.2H593z M602.4,21.1h3.3v18.8h-3.3V21.1z"/>
	<path class="st0" d="M609.6,37.5l3.6-4.7l-3.6-4.7l2.5-1.3l4.5,5.9v0.2l-4.5,5.9L609.6,37.5z M616.4,37.5l3.6-4.7l-3.6-4.7l2.5-1.3
		l4.5,5.9v0.2l-4.5,5.9L616.4,37.5z"/>
	<path class="st0" d="M635.1,21.1h3.3v7.8h9v-7.8h3.3v18.8h-3.3V32h-9v7.9h-3.3V21.1z"/>
	<path class="st0" d="M662.4,21h3.1l8.3,18.9h-3.5l-1.9-4.5h-9l-2,4.5h-3.4L662.4,21z M667.2,32.4l-3.3-7.5l-3.2,7.5H667.2z"/>
	<path class="st0" d="M693.6,38.5c-6,0-9.5-3.4-9.5-8.2c0-4.8,3.5-8.1,9.5-8.1v-1.8h3.3v1.8c5.9,0,9.5,3.4,9.5,8.1
		c0,4.8-3.5,8.2-9.5,8.2v2h-3.3V38.5z M693.6,25.1c-3.7,0-6.1,2-6.1,5.2c0,3.3,2.3,5.3,6.1,5.3V25.1z M702.9,30.4
		c0-3.3-2.3-5.2-6.1-5.2v10.5C700.6,35.6,702.9,33.7,702.9,30.4z"/>
	<path class="st0" d="M710.1,21.1h14.1V24h-10.7v4.9h9.5v2.9h-9.5v5h10.9v2.9h-14.2V21.1z"/>
	<path class="st0" d="M727.4,30.5c0-5.3,4-9.7,9.8-9.7c3.5,0,5.6,1.2,7.4,2.9l-2.1,2.4c-1.5-1.4-3.1-2.3-5.3-2.3
		c-3.6,0-6.3,2.9-6.3,6.7c0,3.7,2.6,6.7,6.3,6.7c2.3,0,3.8-0.9,5.4-2.4l2.1,2.1c-2,2-4.1,3.3-7.7,3.3
		C731.5,40.2,727.4,35.9,727.4,30.5z"/>
	<path class="st0" d="M752.9,24.2h-6v-3.1h15.4v3.1h-6v15.7h-3.4V24.2z"/>
	<path class="st0" d="M765.8,21.1h3.3v13.7l9.6-13.7h3.1v18.8h-3.3V26.2l-9.6,13.7h-3.1V21.1z"/>
	<path class="st0" d="M786.7,21.1h8.5c2.2,0,3.9,0.6,5,1.7c0.8,0.8,1.3,1.8,1.3,3.2c0,2.3-1.3,3.5-2.7,4.2c2.2,0.8,3.8,2,3.8,4.6
		c0,3.4-2.8,5.1-7,5.1h-8.8V21.1z M794.5,29c2.1,0,3.6-0.8,3.6-2.6c0-1.5-1.2-2.4-3.3-2.4h-4.8v5H794.5z M795.5,36.9
		c2.3,0,3.7-0.9,3.7-2.6c0-1.6-1.3-2.5-3.9-2.5h-5.3v5.1H795.5z"/>
	<path class="st0" d="M812.4,21h3.1l8.3,18.9h-3.5l-1.9-4.5h-9l-2,4.5h-3.4L812.4,21z M817.2,32.4l-3.3-7.5l-3.2,7.5H817.2z"/>
	<path class="st0" d="M824.8,39.8l0.3-2.7c0.2,0.1,0.7,0.2,1.1,0.2c1.9,0,3.7-1.2,3.7-12.4v-3.7h13v18.8h-3.3V24.1H833v1.7
		c0,11.9-2.2,14.3-5.9,14.3C826.4,40.1,825.3,39.9,824.8,39.8z"/>
	<path class="st0" d="M847.8,21.1h14.1V24h-10.7v4.9h9.5v2.9h-9.5v5H862v2.9h-14.2V21.1z"/>
</g>
</svg>
