<?xml version="1.0" encoding="utf-8"?>
<!-- Generator: Adobe Illustrator 21.0.0, SVG Export Plug-In . SVG Version: 6.00 Build 0)  -->
<svg version="1.1" xmlns="http://www.w3.org/2000/svg" xmlns:xlink="http://www.w3.org/1999/xlink" x="0px" y="0px" width="184" height="32"
	 viewBox="0 0 184 32" style="enable-background:new 0 0 184 32;" xml:space="preserve">
<style type="text/css">
	.st0{fill:#FFFFFF;}
</style>
<g>
	<path class="st0" d="M1,10.3C1,7,3.5,4.5,6.9,4.5c2.3,0,3.7,1,4.7,2.3L9.3,8.6C8.6,7.8,7.9,7.3,6.8,7.3c-1.6,0-2.7,1.3-2.7,3
		c0,1.7,1.1,3,2.7,3c1.2,0,1.8-0.5,2.5-1.3l2.3,1.7c-1,1.4-2.5,2.5-4.9,2.5C3.6,16.1,1,13.6,1,10.3z"/>
	<path class="st0" d="M13.6,4.7h3.1v4.5l3.8-4.5h3.6L20,9.5l4.3,6.3h-3.7l-2.8-4.1L16.7,13v2.9h-3.1V4.7z"/>
	<path class="st0" d="M25.8,4.7h3V11l4.3-6.3H36v11.1h-3V9.6l-4.3,6.3h-2.9V4.7z"/>
	<path class="st0" d="M37.8,13.1h1c0.7-2,1.1-4,1.1-8.1V4.7h8.5v8.4h1.3l-0.3,4.9h-2.6v-2.2h-5.9l-0.2,2.2h-2.8V13.1z M45.3,13.1
		V7.4h-2.4v0.1c0,2.5-0.4,4.1-0.9,5.6H45.3z"/>
	<path class="st0" d="M51.5,4.7h3.1v4.5l3.8-4.5h3.6l-4.2,4.8l4.3,6.3h-3.7l-2.8-4.1L54.6,13v2.9h-3.1V4.7z"/>
	<path class="st0" d="M67.6,4.6h3l4.7,11.2H72l-0.8-2h-4.3l-0.8,2h-3.2L67.6,4.6z M70.3,11.5L69,8.3l-1.3,3.2H70.3z"/>
	<path class="st0" d="M83.6,7.5l-1.9,0.4l-0.6-2.4l3.3-0.9h2.2v11.2h-3V7.5z"/>
	<path class="st0" d="M89,10.3c0-3.1,2-5.8,5.2-5.8s5.1,2.6,5.1,5.8c0,3.1-2,5.8-5.2,5.8S89,13.5,89,10.3z M96.2,10.3
		c0-1.8-0.8-3-2.1-3s-2,1.2-2,3c0,1.8,0.8,3,2.1,3S96.2,12.1,96.2,10.3z"/>
	<path class="st0" d="M101.2,7.5c0-1.6,1.1-3,2.9-3c1.7,0,2.9,1.3,2.9,3c0,1.6-1.2,3-2.9,3S101.2,9.2,101.2,7.5z M110.9,4.7h2.1
		l-8.6,11.1h-2.1L110.9,4.7z M104.9,7.5c0-0.7-0.4-1.2-0.9-1.2c-0.6,0-0.9,0.5-0.9,1.3c0,0.7,0.4,1.2,0.9,1.2
		C104.6,8.8,104.9,8.3,104.9,7.5z M108.6,13c0-1.6,1.1-3,2.9-3c1.7,0,2.9,1.3,2.9,3c0,1.6-1.2,3-2.9,3S108.6,14.6,108.6,13z
		 M112.4,13c0-0.7-0.4-1.2-0.9-1.2c-0.6,0-0.9,0.5-0.9,1.3c0,0.7,0.4,1.2,0.9,1.2C112,14.2,112.4,13.7,112.4,13z"/>
	<path class="st0" d="M121.5,4.7h3.1v4.2h4V4.7h3.1v11.1h-3.1v-4.2h-4v4.2h-3.1V4.7z"/>
	<path class="st0" d="M138.1,4.6h3l4.7,11.2h-3.3l-0.8-2h-4.3l-0.8,2h-3.2L138.1,4.6z M140.8,11.5l-1.2-3.2l-1.3,3.2H140.8z"/>
	<path class="st0" d="M151.6,4.7h5.7c1.4,0,2.4,0.3,3,1c0.4,0.4,0.7,1,0.7,1.8c0,1.3-0.7,2-1.7,2.5c1.3,0.4,2.2,1.2,2.2,2.7
		c0,1.9-1.6,3.1-4.2,3.1h-5.7V4.7z M156.5,9.1c0.9,0,1.5-0.3,1.5-1c0-0.6-0.5-1-1.4-1h-2v2H156.5z M156.9,13.4c0.9,0,1.5-0.4,1.5-1
		c0-0.6-0.5-1-1.5-1h-2.3v2H156.9z"/>
	<path class="st0" d="M162.2,10.3c0-3.2,2.5-5.8,5.9-5.8c2.3,0,3.7,1,4.7,2.3l-2.3,1.7c-0.6-0.8-1.4-1.3-2.4-1.3
		c-1.6,0-2.7,1.3-2.7,3c0,1.7,1.1,3,2.7,3c1.2,0,1.8-0.5,2.5-1.3l2.3,1.7c-1,1.4-2.5,2.5-4.9,2.5C164.8,16.1,162.2,13.6,162.2,10.3z
		"/>
	<path class="st0" d="M173.9,4.7h8.9v2.6h-5.9V9h5.3v2.4h-5.3v1.8h6v2.6h-9V4.7z"/>
	<path class="st0" d="M1.9,21.5h2.3c0.6,0,1,0.2,1.3,0.5c0.2,0.2,0.3,0.5,0.3,0.9c0,0.6-0.3,0.9-0.7,1.1c0.6,0.2,1,0.5,1,1.3
		c0,0.9-0.7,1.4-1.9,1.4H1.9V21.5z M4,23.6c0.6,0,1-0.2,1-0.7c0-0.4-0.3-0.6-0.9-0.6H2.7v1.4H4z M4.2,25.8c0.6,0,1-0.2,1-0.7
		c0-0.4-0.3-0.7-1-0.7H2.7v1.4H4.2z"/>
	<path class="st0" d="M9.3,21.5h1l1.6,2.4l1.6-2.4h1v5.1h-0.9v-3.7l-1.6,2.4h0l-1.6-2.4v3.6H9.3V21.5z"/>
	<path class="st0" d="M17.4,21.4h0.8l2.2,5.1h-0.9L19,25.3h-2.4l-0.5,1.2h-0.9L17.4,21.4z M18.7,24.5l-0.9-2l-0.9,2H18.7z"/>
	<path class="st0" d="M21.4,21.5h3.4v0.8h-2.5v4.3h-0.9V21.5z"/>
	<path class="st0" d="M26.6,21.4h0.8l2.2,5.1h-0.9l-0.5-1.2h-2.4l-0.5,1.2h-0.9L26.6,21.4z M27.9,24.5l-0.9-2l-0.9,2H27.9z"/>
	<path class="st0" d="M33.9,22.7c0,0.7-0.4,1-0.9,1.2c0.6,0.2,1,0.6,1,1.2c0,0.8-0.7,1.5-1.9,1.5c-1,0-1.6-0.3-2.2-0.8l0.5-0.6
		c0.5,0.4,1,0.7,1.7,0.7c0.5,0,1-0.3,1-0.8c0-0.5-0.5-0.7-1.2-0.7h-0.6v-0.7H32c0.6,0,1-0.3,1-0.7c0-0.4-0.4-0.7-1-0.7
		c-0.6,0-1,0.2-1.4,0.6l-0.5-0.6c0.5-0.5,1.1-0.8,2-0.8C33.2,21.4,33.9,22,33.9,22.7z"/>
	<path class="st0" d="M35.1,21.5H36v3.7l2.6-3.7h0.8v5.1h-0.9v-3.7l-2.6,3.7h-0.8V21.5z"/>
	<path class="st0" d="M40.7,21.5h0.9v2.1H44v-2.1h0.9v5.1H44v-2.1h-2.4v2.1h-0.9V21.5z"/>
	<path class="st0" d="M46.2,21.5H50v0.8h-2.9v1.3h2.6v0.8h-2.6v1.4h2.9v0.8h-3.8V21.5z"/>
	<path class="st0" d="M53,24.7L53,24.7l1.2-1.7l0.7,0.3l-1,1.3l1,1.3l-0.7,0.3L53,24.7z M54.8,24.7L54.8,24.7L56,23l0.7,0.3l-1,1.3
		l1,1.3L56,26.3L54.8,24.7z"/>
	<path class="st0" d="M60.7,24.5c-0.4,0.2-0.9,0.4-1.4,0.4c-1,0-1.7-0.5-1.7-1.6v-1.9h0.9v1.7c0,0.6,0.3,1,0.9,1
		c0.5,0,1-0.2,1.3-0.4v-2.3h0.9v5.1h-0.9V24.5z"/>
	<path class="st0" d="M62.9,21.5h3.8v0.8h-2.9v1.3h2.6v0.8h-2.6v1.4h2.9v0.8h-3.8V21.5z"/>
	<path class="st0" d="M69,22.3h-1.6v-0.8h4.1v0.8h-1.6v4.3H69V22.3z"/>
	<path class="st0" d="M72.5,21.5h0.9v1.8h1.2c1.1,0,1.9,0.6,1.9,1.6c0,1-0.7,1.7-1.9,1.7h-2.1V21.5z M74.5,25.8c0.7,0,1-0.3,1-0.9
		c0-0.5-0.4-0.8-1.1-0.8h-1.1v1.7H74.5z M77.1,21.5H78v5.1h-0.9V21.5z"/>
	<path class="st0" d="M79.3,21.5h2c1.2,0,1.9,0.7,1.9,1.7c0,1.1-0.9,1.7-2,1.7h-1v1.6h-0.9V21.5z M81.2,24.1c0.7,0,1.1-0.4,1.1-0.9
		c0-0.6-0.4-0.9-1.1-0.9h-1v1.8H81.2z"/>
	<path class="st0" d="M84.1,21.5h3.8v0.8H85v1.3h2.6v0.8H85v1.4h2.9v0.8h-3.8V21.5z"/>
	<path class="st0" d="M90.6,26.5l0.1-0.7c0.1,0,0.2,0,0.3,0c0.5,0,1-0.3,1-3.4v-1h3.5v5.1h-0.9v-4.3h-1.8v0.5c0,3.2-0.6,3.9-1.6,3.9
		C91,26.6,90.7,26.6,90.6,26.5z"/>
	<path class="st0" d="M98.6,21.4h0.8l2.2,5.1h-0.9l-0.5-1.2h-2.4l-0.5,1.2h-0.9L98.6,21.4z M99.8,24.5l-0.9-2l-0.9,2H99.8z"/>
	<path class="st0" d="M102.5,21.5h4.2v5.1h-0.9v-4.3h-2.4v4.3h-0.9V21.5z"/>
	<path class="st0" d="M108,21.5h0.9v1.8h1.2c1.1,0,1.9,0.6,1.9,1.6c0,1-0.7,1.7-1.9,1.7H108V21.5z M110,25.8c0.7,0,1-0.3,1-0.9
		c0-0.5-0.4-0.8-1.1-0.8h-1.1v1.7H110z M112.5,21.5h0.9v5.1h-0.9V21.5z"/>
	<path class="st0" d="M114.5,25.9l1-1.3l-1-1.3l0.7-0.3l1.2,1.6v0.1l-1.2,1.6L114.5,25.9z M116.3,25.9l1-1.3l-1-1.3L117,23l1.2,1.6
		v0.1l-1.2,1.6L116.3,25.9z"/>
	<path class="st0" d="M121.3,21.5h0.9v2.1h2.4v-2.1h0.9v5.1h-0.9v-2.1h-2.4v2.1h-0.9V21.5z"/>
	<path class="st0" d="M128.7,21.4h0.8l2.2,5.1h-0.9l-0.5-1.2h-2.4l-0.5,1.2h-0.9L128.7,21.4z M129.9,24.5l-0.9-2l-0.9,2H129.9z"/>
	<path class="st0" d="M137,26.2c-1.6,0-2.5-0.9-2.5-2.2c0-1.3,1-2.2,2.5-2.2v-0.5h0.9v0.5c1.6,0,2.5,0.9,2.5,2.2
		c0,1.3-0.9,2.2-2.5,2.2v0.6H137V26.2z M137,22.6c-1,0-1.6,0.5-1.6,1.4c0,0.9,0.6,1.4,1.6,1.4V22.6z M139.5,24
		c0-0.9-0.6-1.4-1.6-1.4v2.8C138.9,25.4,139.5,24.9,139.5,24z"/>
	<path class="st0" d="M141.5,21.5h3.8v0.8h-2.9v1.3h2.6v0.8h-2.6v1.4h2.9v0.8h-3.8V21.5z"/>
	<path class="st0" d="M146.1,24c0-1.4,1.1-2.6,2.6-2.6c0.9,0,1.5,0.3,2,0.8l-0.6,0.7c-0.4-0.4-0.8-0.6-1.4-0.6c-1,0-1.7,0.8-1.7,1.8
		c0,1,0.7,1.8,1.7,1.8c0.6,0,1-0.3,1.5-0.7l0.6,0.6c-0.5,0.6-1.1,0.9-2.1,0.9C147.2,26.6,146.1,25.5,146.1,24z"/>
	<path class="st0" d="M153,22.3h-1.6v-0.8h4.1v0.8h-1.6v4.3H153V22.3z"/>
	<path class="st0" d="M156.4,21.5h0.9v3.7l2.6-3.7h0.8v5.1h-0.9v-3.7l-2.6,3.7h-0.8V21.5z"/>
	<path class="st0" d="M162,21.5h2.3c0.6,0,1,0.2,1.3,0.5c0.2,0.2,0.3,0.5,0.3,0.9c0,0.6-0.3,0.9-0.7,1.1c0.6,0.2,1,0.5,1,1.3
		c0,0.9-0.7,1.4-1.9,1.4H162V21.5z M164.1,23.6c0.6,0,1-0.2,1-0.7c0-0.4-0.3-0.6-0.9-0.6h-1.3v1.4H164.1z M164.4,25.8
		c0.6,0,1-0.2,1-0.7c0-0.4-0.3-0.7-1-0.7h-1.4v1.4H164.4z"/>
	<path class="st0" d="M168.9,21.4h0.8l2.2,5.1h-0.9l-0.5-1.2h-2.4l-0.5,1.2h-0.9L168.9,21.4z M170.2,24.5l-0.9-2l-0.9,2H170.2z"/>
	<path class="st0" d="M172.3,26.5l0.1-0.7c0.1,0,0.2,0,0.3,0c0.5,0,1-0.3,1-3.4v-1h3.5v5.1h-0.9v-4.3h-1.8v0.5
		c0,3.2-0.6,3.9-1.6,3.9C172.7,26.6,172.4,26.6,172.3,26.5z"/>
	<path class="st0" d="M178.5,21.5h3.8v0.8h-2.9v1.3h2.6v0.8h-2.6v1.4h2.9v0.8h-3.8V21.5z"/>
</g>
</svg>
