<?xml version="1.0" encoding="utf-8"?>
<!-- Generator: Adobe Illustrator 21.0.0, SVG Export Plug-In . SVG Version: 6.00 Build 0)  -->
<svg version="1.1" id="Слой_1" xmlns="http://www.w3.org/2000/svg" xmlns:xlink="http://www.w3.org/1999/xlink" x="0px" y="0px"
	 viewBox="0 0 20.1 14" enable-background="new 0 0 20.1 14" xml:space="preserve">
<path fill="#845098" d="M19.4,10.5c-0.4,0-0.7-0.3-0.7-0.7c0,0,0,0,0,0V7.2c0-0.1,0-0.3-0.1-0.4l-3.2-4.3c-0.5-0.7-1.3-1-2.1-1H2.1
	c-0.4,0-0.7,0.3-0.7,0.7v7.6c0,0.4-0.4,0.7-0.8,0.7C0.3,10.5,0,10.2,0,9.8V2.1C0,1,1,0,2.1,0h11.1c1.3,0,2.5,0.6,3.3,1.6l3.2,4.3
	c0.3,0.4,0.4,0.8,0.4,1.3v2.6C20.1,10.2,19.8,10.5,19.4,10.5C19.4,10.5,19.4,10.5,19.4,10.5z"/>
<path fill="#845098" d="M4.7,8.8c-1.4,0-2.6,1.2-2.6,2.6c0,1.4,1.2,2.6,2.6,2.6c1.4,0,2.6-1.2,2.6-2.6C7.4,9.9,6.2,8.8,4.7,8.8z
	 M4.7,12.5c-0.6,0-1.1-0.5-1.1-1.1c0-0.6,0.5-1.1,1.1-1.1c0,0,0,0,0,0c0.6,0,1.1,0.5,1.1,1.1C5.9,12,5.4,12.5,4.7,12.5z"/>
<path fill="#845098" d="M15.2,8.8c-1.4,0-2.6,1.2-2.6,2.6c0,1.4,1.2,2.6,2.6,2.6c1.4,0,2.6-1.2,2.6-2.6C17.8,9.9,16.7,8.8,15.2,8.8z
	 M15.2,12.5c-0.6,0-1.1-0.5-1.1-1.1c0-0.6,0.5-1.1,1.1-1.1c0,0,0,0,0,0c0.6,0,1.1,0.5,1.1,1.1C16.4,12,15.9,12.5,15.2,12.5z"/>
<path fill="#845098" d="M13.4,12.1H6.6c-0.4,0-0.7-0.3-0.7-0.7c0-0.4,0.3-0.7,0.7-0.7c0,0,0,0,0,0h6.8c0.4,0,0.7,0.3,0.7,0.7
	C14.1,11.8,13.8,12.1,13.4,12.1C13.4,12.1,13.4,12.1,13.4,12.1z"/>
<path fill="#845098" d="M15.5,6.2l-0.2,0.1c-1.1,0.3-2.4,0.2-3.4-0.3c-1-0.5-1.9-1.3-2.4-2.3L8.6,1.9C8.6,1.6,8.7,1.4,9,1.3
	c0.2-0.1,0.5,0,0.6,0.2l0.8,1.8c0.9,1.7,2.8,2.6,4.7,2l0.2-0.1c0.3-0.1,0.5,0.1,0.6,0.3c0,0,0,0,0,0C15.9,5.9,15.7,6.1,15.5,6.2z"/>
</svg>
