<?xml version="1.0" encoding="utf-8"?>
<!-- Generator: Adobe Illustrator 21.0.0, SVG Export Plug-In . SVG Version: 6.00 Build 0)  -->
<svg version="1.1" id="Слой_1" xmlns="http://www.w3.org/2000/svg" xmlns:xlink="http://www.w3.org/1999/xlink" x="0px" y="0px"
	 viewBox="0 0 36 36" enable-background="new 0 0 36 36" xml:space="preserve">
<path fill="#845098" d="M18,0C8,0,0,8.1,0,18C0,28,8.1,36,18,36c0,0,0,0,0.1,0C28,36,36,27.9,36,18c0,0,0,0,0,0C36,8,27.9,0,18,0z
	 M30.6,19.6c0.7,0.1,1.3,0,1.9-0.4c-0.6,7.1-6.2,12.8-13.4,13.4c0.4-0.6,0.6-1.4,0.4-2.1c-0.1-0.8-0.8-1.3-1.6-1.2
	c-0.8,0.1-1.4,0.7-1.5,1.5c-0.1,0.6,0,1.3,0.4,1.8C9.8,31.9,4.1,26.3,3.6,19.2c0.8,0.5,1.7,0.6,2.5,0.2c0.6-0.3,0.9-0.9,0.8-1.6
	c-0.1-0.7-0.7-1.3-1.4-1.3c-0.6-0.1-1.3,0-1.8,0.4c-0.4-1.6,1.4-6,3.3-8.1c2.5-3,6.1-4.9,10-5.2c-0.4,0.6-0.6,1.4-0.4,2.1
	c0.1,0.8,0.8,1.3,1.6,1.3c0.8-0.1,1.4-0.7,1.5-1.5c0.1-0.6,0-1.3-0.4-1.9c7.1,0.6,12.7,6.2,13.3,13.3c-0.6-0.4-1.4-0.6-2.1-0.4
	c-0.8,0.1-1.3,0.8-1.3,1.6C29.2,18.9,29.8,19.5,30.6,19.6z"/>
<path fill="#845098" d="M15.8,18c0-0.6,0.3-1.2,0.7-1.6c0.1-0.1,0.2-0.3,0.2-0.4c0.1-2.2,0.2-4.3,0.3-6.5c0-0.2,0-0.3,0.1-0.5
	c0.1-0.4,0.5-0.7,0.9-0.7c0.4,0,0.8,0.3,0.8,0.7c0.1,0.7,0.1,1.3,0.1,2c0.1,1.6,0.1,3.3,0.2,4.9c0,0.1,0.1,0.3,0.2,0.4
	c0.5,0.4,0.8,1,0.8,1.6c0,0.2,0.1,0.4,0.2,0.5c1.1,1.3,2.3,2.6,3.4,4c0.4,0.4,0.4,1.1,0,1.5c-0.4,0.4-1.1,0.4-1.5,0l0,0
	c-1.3-1.1-2.6-2.3-3.9-3.4c-0.1-0.1-0.3-0.2-0.5-0.2C16.8,20.2,15.8,19.2,15.8,18z"/>
</svg>
