<?xml version="1.0" encoding="utf-8"?>
<!-- Generator: Adobe Illustrator 21.0.0, SVG Export Plug-In . SVG Version: 6.00 Build 0)  -->
<svg version="1.1" id="Слой_1" xmlns="http://www.w3.org/2000/svg" xmlns:xlink="http://www.w3.org/1999/xlink" x="0px" y="0px"
	 viewBox="0 0 26 26" enable-background="new 0 0 26 26" xml:space="preserve">
<g id="_x23_797979ff">
	<path fill="#797979" d="M0,1.3C0.1,0.6,0.7,0,1.4,0c7.7,0,15.4,0,23.1,0c0.6,0,1.2,0.4,1.4,1C26,1.3,26,1.7,26,2.1
		c0,7.5,0,15,0,22.5c0,0.8-0.7,1.4-1.4,1.4c-2.2,0-4.4,0-6.6,0c0-3.1,0-6.2,0-9.3c0-0.2,0-0.5,0-0.7c1.1,0,2.3,0,3.4,0
		c0.2-1.3,0.4-2.6,0.5-3.9c-1.3,0-2.6,0-3.9,0c0-0.7,0-1.5,0-2.2c0-0.5,0-1.2,0.4-1.6c0.3-0.4,0.8-0.5,1.2-0.5c0.8,0,1.6,0,2.4,0
		c0-1.2,0-2.4,0-3.6c-1.1-0.1-2.3-0.1-3.4-0.1c-1.3,0-2.6,0.5-3.4,1.4c-0.9,0.9-1.2,2.2-1.3,3.5c0,1,0,2.1,0,3.1c-1.1,0-2.3,0-3.4,0
		c0,1.3,0,2.6,0,3.9c1.1,0.1,2.3,0,3.4,0c0,3.3,0,6.7,0,10c-4.1,0-8.3,0-12.4,0C0.7,26,0,25.3,0,24.6C0,17.2,0,9.7,0,2.3
		C0,2,0,1.6,0,1.3z"/>
</g>
</svg>
