<?xml version="1.0" encoding="utf-8"?>
<!-- Generator: Adobe Illustrator 21.0.0, SVG Export Plug-In . SVG Version: 6.00 Build 0)  -->
<svg version="1.1" id="Слой_1" xmlns="http://www.w3.org/2000/svg" xmlns:xlink="http://www.w3.org/1999/xlink" x="0px" y="0px"
	 viewBox="0 0 200 45" enable-background="new 0 0 200 45" xml:space="preserve">
<path fill="#787878" d="M18.1,28.9v-5.1c1.1-0.7,1-1.8,1-2.9v-7.8h-0.1L15,28.9h-2.9L8,13.2l0,0v7.8c0,1.1-0.1,2.1,0.9,2.9v5.1H0
	v-5.1c1.1-0.7,1-1.8,1-2.9v-13c0-1.1,0.1-2.1-1-2.8V0h11.4l3,11.9h0.1L17.5,0h11.1v5.1c-1.1,0.7-1,1.8-1,2.8v13c0,1.1-0.1,2.1,1,2.9
	v5.1H18.1z"/>
<path fill="#787878" d="M54.2,18.4v10.4H32.4v-5.1c1.1-0.7,1-1.8,1-2.9v-13c0-1.1,0.1-2.1-1-2.8V0h21.8v9.8h-8.3V8.9
	c0-1.9-0.3-2.7-2.7-2.7h-0.5v5.2h5.7v5.6h-5.7v5.8h0.5c2.7,0,2.7-1,2.7-3.4v-0.9H54.2z"/>
<path fill="#787878" d="M68.7,15.7l-1.5-8.5h0l-1.4,8.5H68.7z M66.2,28.9H56.2v-5.1c1-0.7,1.2-2.2,1.4-3.3L61.4,0h12.9l4.2,20.9
	c0.2,0.9,0.5,2.5,1.5,2.9v5.1H68.6v-5.1c0.7-0.3,1-0.8,1-1.6c0-0.3,0-0.6-0.1-0.8h-4.4c0,0.2-0.1,0.6-0.1,0.8c0,0.8,0.4,1.4,1.2,1.6
	V28.9z"/>
<path fill="#787878" d="M82.1,28.9v-5.1c1.1-0.7,1-1.8,1-2.9v-13c0-1.1,0.1-2.1-1-2.8V0h11.1v5.1c-1.2,0.7-1,1.8-1,2.8v14.8H93
	c2.3,0,2.3-1.4,2.3-3.2v-4.7h8v14H82.1z"/>
<path fill="#787878" d="M119.8,10c0-1.4,0.1-2.4-0.2-3c-0.4-0.7-1.1-1-2.8-0.8v5.5h5.7v5.6h-5.7v3.6c0,1.1-0.1,2.1,0.9,2.9v5.1h-11
	v-5.1c1.1-0.7,1-1.8,1-2.9v-13c0-1.5-0.1-2.4-1.2-2.8V0h21.1v10H119.8z"/>
<path fill="#787878" d="M151.7,18.4v10.4h-21.8v-5.1c1.1-0.7,1-1.8,1-2.9v-13c0-1.1,0.1-2.1-1-2.8V0h21.8v9.8h-8.4V8.9
	c0-1.9-0.2-2.7-2.7-2.7h-0.6v5.2h5.7v5.6h-5.7v5.8h0.6c2.7,0,2.7-1,2.7-3.4v-0.9H151.7z"/>
<path fill="#787878" d="M176.4,18.4v10.4h-21.8v-5.1c1.1-0.7,1-1.8,1-2.9v-13c0-1.1,0.1-2.1-1-2.8V0h21.8v9.8H168V8.9
	c0-1.9-0.3-2.7-2.7-2.7h-0.5v5.2h5.7v5.6h-5.7v5.8h0.5c2.7,0,2.7-1,2.7-3.4v-0.9H176.4z"/>
<path fill="#787878" d="M178.8,28.9v-5.1c1.1-0.7,1-1.8,1-2.9v-13c0-1.1,0.1-2.1-1-2.8V0h11v5.1c-1.1,0.7-1,1.8-1,2.8v14.8h0.9
	c2.3,0,2.3-1.4,2.3-3.2v-4.7h8v14H178.8z"/>
<polygon fill="#787878" points="69.3,37.3 73.6,37.3 73.6,38.4 70.7,38.4 70.7,40.5 73.4,40.5 73.4,41.7 70.7,41.7 70.7,44.9 
	69.3,44.9 "/>
<path fill="#787878" d="M78.3,41.1c0,1.5,0.7,2.8,2.1,2.8c1.3,0,2.1-1.2,2.1-2.8c0-1.4-0.7-2.8-2.1-2.8C79,38.3,78.3,39.5,78.3,41.1
	L78.3,41.1z M84,41c0,2.5-1.5,4-3.6,4c-2.1,0-3.5-1.7-3.5-3.8c0-2.4,1.5-4,3.6-4C82.7,37.2,84,38.9,84,41L84,41z"/>
<path fill="#787878" d="M88.8,40.7h0.8c0.9,0,1.5-0.5,1.5-1.2c0-0.8-0.6-1.2-1.5-1.2c-0.4,0-0.7,0-0.8,0.1V40.7z M87.4,37.4
	c0.5-0.1,1.3-0.1,2.1-0.1c1.1,0,1.8,0.2,2.3,0.6c0.4,0.3,0.7,0.9,0.7,1.5c0,1-0.7,1.6-1.3,1.8v0c0.6,0.2,0.9,0.7,1,1.5
	c0.3,0.9,0.5,1.8,0.6,2.1h-1.4c-0.1-0.2-0.3-0.8-0.5-1.8c-0.2-1-0.6-1.3-1.3-1.3h-0.7v3.1h-1.4V37.4z"/>
<path fill="#787878" d="M106.1,44.6c-0.3,0.2-1,0.4-2,0.4c-2.4,0-3.9-1.5-3.9-3.8c0-2.4,1.7-4,4-4c0.9,0,1.5,0.2,1.8,0.4l-0.3,1.1
	c-0.3-0.1-0.8-0.3-1.5-0.3c-1.5,0-2.7,1-2.7,2.8c0,1.7,1,2.7,2.7,2.7c0.6,0,1.2-0.1,1.5-0.3L106.1,44.6z"/>
<path fill="#787878" d="M113.3,41.7l-0.6-1.8c-0.1-0.5-0.3-1-0.4-1.4l0,0c-0.1,0.4-0.3,1-0.4,1.4l-0.6,1.8H113.3z M111.1,42.7
	l-0.7,2.1h-1.4l2.4-7.5h1.8l2.5,7.5h-1.5l-0.7-2.1H111.1z"/>
<polygon fill="#787878" points="119.5,38.5 117.4,38.5 117.4,37.3 123.1,37.3 123.1,38.5 120.9,38.5 120.9,44.9 119.5,44.9 "/>
<path fill="#787878" d="M126.1,43.3c0.5,0.3,1.1,0.5,1.9,0.5c0.8,0,1.3-0.4,1.3-1c0-0.6-0.4-0.9-1.3-1.2c-1.3-0.5-2-1.1-2-2.2
	c0-1.2,1-2.2,2.7-2.2c0.8,0,1.4,0.2,1.8,0.4l-0.3,1.1c-0.3-0.1-0.8-0.3-1.5-0.3c-0.9,0-1.3,0.5-1.3,0.9c0,0.6,0.5,0.9,1.4,1.2
	c1.3,0.5,2,1.2,2,2.3c0,1.2-0.9,2.3-2.9,2.3c-0.8,0-1.6-0.2-2-0.5L126.1,43.3z"/>
<rect y="40.8" fill="#787878" width="61.5" height="1.2"/>
<rect x="137.3" y="40.8" fill="#787878" width="62.7" height="1.2"/>
</svg>
