<?xml version="1.0" encoding="utf-8"?>
<!-- Generator: Adobe Illustrator 21.0.0, SVG Export Plug-In . SVG Version: 6.00 Build 0)  -->
<svg version="1.1" id="Слой_1" xmlns="http://www.w3.org/2000/svg" xmlns:xlink="http://www.w3.org/1999/xlink" x="0px" y="0px"
	 viewBox="0 0 26 26" enable-background="new 0 0 26 26" xml:space="preserve">
<g id="_x23_797979ff_1_">
	<path fill="#797979" d="M3.7,0h18.6c0.9,0,1.7,0.4,2.4,0.9c0.7,0.6,1.2,1.5,1.3,2.4v19.3c-0.1,0.9-0.5,1.7-1.1,2.3
		c-0.6,0.6-1.3,0.9-2.2,1H3.3c-0.8-0.1-1.6-0.5-2.2-1C0.4,24.3,0,23.3,0,22.3V3.7C0,3.3,0.1,3,0.2,2.6C0.4,1.8,1,1.2,1.6,0.7
		C2.2,0.3,3,0,3.7,0 M12.5,3.9C11.4,4,10.2,4.6,9.5,5.5c-0.5,0.6-0.8,1.2-1,2C8.3,8.2,8.3,9,8.5,9.7c0.2,1,0.8,1.9,1.6,2.5
		c0.8,0.6,1.8,1,2.8,1c1,0,2-0.3,2.8-0.8c0.8-0.6,1.4-1.4,1.8-2.3c0.4-1,0.3-2.2-0.1-3.2c-0.4-0.9-1-1.7-1.9-2.3
		C14.6,4,13.6,3.8,12.5,3.9 M8,13.9c-0.3,0.3-0.4,0.8-0.2,1.2c0.1,0.3,0.3,0.6,0.6,0.7c0.9,0.6,1.9,1,3,1.2
		c-0.9,0.9-1.8,1.9-2.7,2.8c-0.3,0.3-0.4,0.7-0.3,1c0,0.3,0.2,0.6,0.5,0.8C9,21.9,9.3,22,9.6,22c0.3,0,0.7-0.2,0.9-0.4
		c0.8-0.9,1.6-1.8,2.5-2.6c0.8,0.8,1.7,1.6,2.5,2.4c0.2,0.2,0.3,0.4,0.6,0.5c0.3,0.2,0.8,0.2,1.1,0c0.3-0.2,0.6-0.5,0.7-0.8
		c0.1-0.4,0-0.8-0.2-1.1c-0.1-0.2-0.3-0.3-0.4-0.5c-0.8-0.8-1.7-1.6-2.5-2.5c1-0.2,1.9-0.6,2.7-1.1c0.2-0.1,0.4-0.3,0.6-0.5
		c0.3-0.4,0.3-0.8,0.1-1.2c-0.2-0.4-0.5-0.7-0.9-0.8c-0.3-0.1-0.7,0-1,0.2c-0.5,0.4-1,0.6-1.6,0.8c-1.1,0.3-2.4,0.3-3.5,0
		c-0.5-0.2-1-0.4-1.4-0.7c-0.2-0.2-0.5-0.3-0.8-0.3C8.6,13.4,8.2,13.6,8,13.9z"/>
	<path fill="#797979" d="M12.7,6.7c0.4-0.1,0.9,0,1.3,0.2c0.3,0.2,0.6,0.5,0.8,0.8C14.9,8.1,15,8.6,14.9,9c-0.1,0.4-0.3,0.7-0.5,1
		c-0.3,0.3-0.7,0.5-1.2,0.5c-0.4,0-0.8,0-1.1-0.2c-0.4-0.2-0.7-0.5-0.9-1c-0.2-0.5-0.2-1,0-1.5C11.5,7.2,12,6.8,12.7,6.7z"/>
</g>
</svg>
