<?xml version="1.0" standalone="no"?>
<!DOCTYPE svg PUBLIC "-//W3C//DTD SVG 20010904//EN"
 "http://www.w3.org/TR/2001/REC-SVG-20010904/DTD/svg10.dtd">
<svg version="1.0" xmlns="http://www.w3.org/2000/svg"
 width="700.000000pt" height="700.000000pt" viewBox="0 0 700.000000 700.000000"
 preserveAspectRatio="xMidYMid meet">
<metadata>
Created by potrace 1.11, written by Peter Selinger 2001-2013
</metadata>
<g transform="translate(0.000000,700.000000) scale(0.100000,-0.100000)"
fill="#000000" stroke="none">
<path d="M3280 6994 c-19 -2 -84 -9 -145 -14 -726 -69 -1456 -397 -1995 -898
-643 -597 -1026 -1353 -1122 -2217 -17 -155 -17 -575 0 -730 102 -921 545
-1745 1253 -2332 528 -437 1142 -697 1859 -785 138 -17 602 -17 740 0 447 55
833 169 1203 356 915 461 1577 1292 1826 2291 70 282 96 505 96 835 0 315 -19
501 -81 771 -199 879 -725 1642 -1479 2146 -452 301 -963 489 -1525 559 -117
15 -552 27 -630 18z m1202 -1392 c61 -67 97 -169 129 -362 19 -116 21 -119
126 -113 212 12 446 -77 522 -200 10 -18 37 -84 59 -148 73 -212 94 -239 181
-239 49 0 220 29 327 56 28 7 28 7 10 -11 -47 -47 -58 -124 -27 -190 62 -134
282 -190 389 -100 17 14 32 25 35 25 6 0 -25 -119 -47 -180 -45 -121 -163
-284 -272 -374 -80 -66 -173 -116 -274 -147 -150 -47 -398 -25 -509 45 -61 39
-141 128 -141 159 0 4 22 7 50 7 42 0 52 4 66 25 23 35 7 70 -35 78 -40 8
-124 -8 -178 -34 -48 -23 -130 -109 -139 -145 -8 -29 11 -54 40 -54 27 0 38 9
56 44 22 43 35 42 63 -7 55 -93 177 -182 289 -211 111 -29 291 -29 396 0 9 2
-23 -16 -73 -41 -173 -85 -441 -160 -620 -172 -393 -25 -836 254 -1031 652
-65 132 -79 200 -65 302 29 205 159 563 248 682 17 22 35 73 53 150 62 258
165 462 264 522 46 28 69 24 108 -19z m657 -77 c10 -30 12 -76 7 -180 -5 -140
-16 -202 -32 -197 -5 1 -47 16 -94 32 -47 16 -100 30 -117 30 -18 0 -33 3 -33
6 0 3 16 42 36 87 71 164 156 273 204 264 8 -1 21 -20 29 -42z m-3530 -617 c5
-13 18 -56 30 -96 31 -102 102 -239 173 -333 126 -168 305 -324 408 -358 49
-16 262 -39 480 -52 200 -12 524 -7 735 12 72 7 152 13 179 13 l48 1 28 -86
c95 -291 293 -533 550 -673 114 -62 361 -149 495 -175 119 -23 110 -11 69 -94
-57 -112 -110 -185 -204 -278 l-86 -86 -114 -6 c-80 -3 -141 -13 -200 -30 -47
-14 -86 -25 -86 -24 -1 1 -19 63 -39 137 -20 74 -42 141 -48 148 -6 7 -24 12
-41 10 -43 -4 -44 -23 -4 -181 18 -72 33 -136 33 -140 0 -4 -29 -22 -65 -40
-67 -33 -77 -48 -66 -93 9 -36 43 -31 175 25 163 70 263 95 386 95 85 0 107
-3 147 -23 59 -29 103 -77 139 -156 106 -228 85 -490 -49 -592 -52 -40 -98
-53 -182 -53 -152 1 -241 102 -272 309 -12 79 -29 111 -58 111 -10 0 -55 -20
-101 -44 -129 -68 -209 -89 -326 -84 -84 3 -106 8 -158 33 -112 57 -194 160
-240 305 -14 41 -18 93 -20 207 -1 84 -4 156 -8 159 -11 11 -58 7 -70 -5 -8
-8 -12 -58 -12 -151 0 -127 -2 -140 -18 -140 -32 0 -217 30 -315 51 -84 18
-322 85 -330 93 -1 2 18 33 42 69 74 111 109 226 104 343 l-3 69 -33 3 c-45 5
-62 -12 -62 -62 -1 -127 -64 -271 -165 -371 -217 -217 -544 -219 -770 -4 -69
66 -135 165 -135 204 0 12 -8 16 -32 13 -50 -5 -53 -38 -10 -118 19 -36 48
-82 65 -103 l30 -39 -22 -46 c-73 -151 -210 -306 -319 -361 -130 -65 -295 -66
-421 -1 -88 44 -162 174 -146 253 22 102 112 155 206 123 61 -22 96 -20 143 8
80 47 140 157 268 495 48 129 103 261 121 295 45 82 72 99 157 104 61 4 78 1
125 -22 69 -34 93 -65 101 -129 8 -57 32 -88 63 -80 39 10 43 25 31 134 -18
166 8 324 75 447 l35 62 -99 98 c-168 166 -281 342 -337 528 -24 76 -28 107
-28 219 -1 127 9 175 35 175 5 0 13 -10 18 -22z m4521 -313 c73 -66 -60 -166
-157 -118 -40 19 -49 38 -39 79 14 56 149 82 196 39z m-833 -1717 c65 -24 127
-91 178 -192 51 -104 67 -179 63 -300 -3 -94 -6 -107 -33 -152 -45 -71 -110
-109 -191 -109 -54 0 -67 4 -101 31 -50 40 -96 134 -118 239 -12 57 -25 91
-39 104 l-22 21 -79 -34 c-125 -53 -117 -54 -147 6 -34 70 -91 134 -139 159
l-40 20 88 93 87 94 78 17 c178 38 319 39 415 3z m-2727 -339 c44 -17 80 -32
80 -35 0 -2 -27 -61 -60 -130 -135 -284 -269 -428 -460 -495 -84 -29 -241 -32
-310 -5 -73 28 -117 64 -145 119 -28 57 -32 102 -11 152 28 65 102 89 223 72
155 -22 187 -1 214 146 l12 67 37 0 c83 0 217 51 289 110 20 16 40 29 44 30 4
0 44 -14 87 -31z"/>
<path d="M4456 5358 c-31 -47 -88 -202 -89 -242 l-2 -41 55 1 c30 0 68 6 84
13 l29 12 -7 72 c-8 85 -30 185 -44 199 -7 7 -15 2 -26 -14z"/>
<path d="M5247 4612 c-33 -37 -9 -142 33 -142 41 0 67 90 40 141 -13 24 -52
25 -73 1z"/>
<path d="M4975 4554 c-73 -79 -39 -254 49 -254 54 0 96 61 96 140 0 112 -85
179 -145 114z"/>
</g>
</svg>
